<svg width="25" height="24" viewBox="0 0 25 24" fill="currentColor" xmlns="http://www.w3.org/2000/svg">
<path d="M18.625 10.75C19.0392 10.75 19.375 10.4142 19.375 10C19.375 9.58579 19.0392 9.25 18.625 9.25V10.75ZM13.625 9.25C13.2108 9.25 12.875 9.58579 12.875 10C12.875 10.4142 13.2108 10.75 13.625 10.75V9.25ZM18.0166 3.02567L18.1145 2.28208L18.0166 3.02567ZM20.5993 5.60842L21.3429 5.51053V5.51053L20.5993 5.60842ZM13.3371 5.49543L13.7018 4.84003L13.3371 5.49543ZM14.1854 5.84678L13.9798 6.56805L14.1854 5.84678ZM8.34057 2.01738L8.27074 2.76412L8.34057 2.01738ZM10.5209 2.92051L10.9996 2.34311L10.5209 2.92051ZM21.8555 6.99383L22.4132 6.49229L21.8555 6.99383ZM21.6312 6.76946L22.1327 6.21183L21.6312 6.76946ZM2.69435 5.25839L1.95735 5.11933L2.69435 5.25839ZM5.88339 2.06935L5.74433 1.33235L5.88339 2.06935ZM18.625 9.25H13.625V10.75H18.625V9.25ZM10.625 3.75H17.125V2.25H10.625V3.75ZM17.125 3.75C17.6133 3.75 17.7848 3.75162 17.9187 3.76925L18.1145 2.28208C17.8585 2.24838 17.5656 2.25 17.125 2.25V3.75ZM21.375 6.5C21.375 6.05942 21.3766 5.7665 21.3429 5.51053L19.8558 5.70632C19.8734 5.84024 19.875 6.01174 19.875 6.5H21.375ZM17.9187 3.76925C18.9283 3.90217 19.7228 4.69667 19.8558 5.70632L21.3429 5.51053C21.1214 3.82778 19.7972 2.50362 18.1145 2.28208L17.9187 3.76925ZM21.875 11.7979V14H23.375V11.7979H21.875ZM14.625 21.25H10.625V22.75H14.625V21.25ZM3.375 14V6.94975H1.875V14H3.375ZM10.5444 3.98008L11.0947 4.53033L12.1553 3.46967L11.6051 2.91942L10.5444 3.98008ZM16.4534 6.75H16.8271V5.25H16.4534V6.75ZM11.0947 4.53033C11.8805 5.31618 12.3711 5.81626 12.9725 6.15082L13.7018 4.84003C13.3262 4.63108 13.001 4.31538 12.1553 3.46967L11.0947 4.53033ZM16.4534 5.25C15.2574 5.25 14.8043 5.24332 14.3909 5.12551L13.9798 6.56805C14.6415 6.75668 15.3421 6.75 16.4534 6.75V5.25ZM12.9725 6.15082C13.2911 6.32809 13.6291 6.46809 13.9798 6.56805L14.3909 5.12551C14.151 5.05712 13.9198 4.96133 13.7018 4.84003L12.9725 6.15082ZM7.57475 2.75C7.97536 2.75 8.12788 2.75076 8.27074 2.76412L8.4104 1.27063C8.18165 1.24924 7.94749 1.25 7.57475 1.25V2.75ZM11.6051 2.91942C11.3415 2.65585 11.1765 2.48974 10.9996 2.34311L10.0423 3.49792C10.1528 3.58949 10.2611 3.6968 10.5444 3.98008L11.6051 2.91942ZM8.27074 2.76412C8.92162 2.82498 9.53901 3.08072 10.0423 3.49792L10.9996 2.34311C10.264 1.73335 9.36168 1.35959 8.4104 1.27063L8.27074 2.76412ZM10.625 21.25C8.71818 21.25 7.36351 21.2484 6.33585 21.1102C5.32976 20.975 4.75011 20.7213 4.3269 20.2981L3.26624 21.3588C4.01461 22.1071 4.96355 22.4392 6.13598 22.5969C7.28682 22.7516 8.76058 22.75 10.625 22.75V21.25ZM1.875 14C1.875 15.8644 1.87341 17.3382 2.02813 18.489C2.18576 19.6614 2.51788 20.6104 3.26624 21.3588L4.3269 20.2981C3.90369 19.8749 3.65002 19.2952 3.51476 18.2892C3.37659 17.2615 3.375 15.9068 3.375 14H1.875ZM21.875 14C21.875 15.9068 21.8734 17.2615 21.7352 18.2892C21.6 19.2952 21.3463 19.8749 20.9231 20.2981L21.9838 21.3588C22.7321 20.6104 23.0642 19.6614 23.2219 18.489C23.3766 17.3382 23.375 15.8644 23.375 14H21.875ZM14.625 22.75C16.4894 22.75 17.9632 22.7516 19.114 22.5969C20.2864 22.4392 21.2354 22.1071 21.9838 21.3588L20.9231 20.2981C20.4999 20.7213 19.9202 20.975 18.9142 21.1102C17.8865 21.2484 16.5318 21.25 14.625 21.25V22.75ZM23.375 11.7979C23.375 10.5014 23.3764 9.45868 23.273 8.63599C23.1672 7.79457 22.9414 7.07964 22.4132 6.49229L21.2979 7.49537C21.5391 7.76355 21.6981 8.13446 21.7847 8.82311C21.8736 9.53048 21.875 10.4621 21.875 11.7979H23.375ZM16.8271 6.75C18.1629 6.75 19.0945 6.75139 19.8019 6.84032C20.4905 6.9269 20.8615 7.0859 21.1296 7.3271L22.1327 6.21183C21.5454 5.68356 20.8304 5.45783 19.989 5.35204C19.1663 5.24861 18.1236 5.25 16.8271 5.25V6.75ZM22.4132 6.49229C22.3247 6.39392 22.2311 6.3003 22.1327 6.21183L21.1296 7.3271C21.1886 7.38018 21.2448 7.43636 21.2979 7.49537L22.4132 6.49229ZM3.375 6.94975C3.375 6.03311 3.37828 5.67871 3.43135 5.39744L1.95735 5.11933C1.87172 5.57319 1.875 6.10133 1.875 6.94975H3.375ZM7.57475 1.25C6.72633 1.25 6.19819 1.24672 5.74433 1.33235L6.02244 2.80635C6.30371 2.75328 6.65811 2.75 7.57475 2.75V1.25ZM3.43135 5.39744C3.6794 4.08275 4.70775 3.0544 6.02244 2.80635L5.74433 1.33235C3.82287 1.69489 2.31989 3.19787 1.95735 5.11933L3.43135 5.39744Z" fill="currentColor"/>
</svg>
