<svg width="16" height="16" viewBox="0 0 16 16" fill="none" xmlns="http://www.w3.org/2000/svg">
<path d="M12.6654 8.00033C12.6654 8.36852 12.3669 8.66699 11.9987 8.66699C11.6305 8.66699 11.332 8.36852 11.332 8.00033C11.332 7.63214 11.6305 7.33366 11.9987 7.33366C12.3669 7.33366 12.6654 7.63214 12.6654 8.00033Z" fill="#1C274C"/>
<path fill-rule="evenodd" clip-rule="evenodd" d="M6.62775 2.16699H8.70298C9.92815 2.16698 10.8986 2.16697 11.658 2.26908C12.4397 2.37417 13.0723 2.59558 13.5712 3.09449C14.1875 3.71075 14.3838 4.53608 14.4552 5.60704C14.84 5.77639 15.1306 6.13453 15.1626 6.58819C15.1654 6.62832 15.1654 6.67157 15.1654 6.71167C15.1654 6.71532 15.1654 6.71895 15.1654 6.72255V9.2781C15.1654 9.2817 15.1654 9.28533 15.1654 9.28899C15.1654 9.32908 15.1654 9.37234 15.1626 9.41247C15.1306 9.86613 14.84 10.2243 14.4552 10.3936C14.3838 11.4646 14.1875 12.2899 13.5712 12.9062C13.0723 13.4051 12.4397 13.6265 11.658 13.7316C10.8986 13.8337 9.92815 13.8337 8.70297 13.8337H6.62776C5.40258 13.8337 4.43216 13.8337 3.67268 13.7316C2.89107 13.6265 2.25844 13.4051 1.75953 12.9062C1.26062 12.4073 1.03921 11.7746 0.934121 10.993C0.832012 10.2335 0.832021 9.26311 0.832031 8.03794V7.96272C0.832021 6.73754 0.832012 5.76712 0.934121 5.00764C1.03921 4.22603 1.26062 3.5934 1.75953 3.09449C2.25844 2.59558 2.89107 2.37417 3.67268 2.26908C4.43216 2.16697 5.40258 2.16698 6.62775 2.16699ZM13.444 10.5003H12.1525C10.7224 10.5003 9.4987 9.41529 9.4987 8.00033C9.4987 6.58537 10.7224 5.50033 12.1525 5.50033H13.444C13.3681 4.60602 13.1964 4.13395 12.8641 3.80159C12.582 3.51945 12.1955 3.35034 11.5248 3.26017C10.8397 3.16805 9.93658 3.16699 8.66537 3.16699H6.66536C5.39415 3.16699 4.49104 3.16805 3.80593 3.26017C3.1352 3.35034 2.74877 3.51945 2.46663 3.80159C2.18449 4.08373 2.01538 4.47017 1.9252 5.14089C1.83309 5.826 1.83203 6.72911 1.83203 8.00033C1.83203 9.27154 1.83309 10.1747 1.9252 10.8598C2.01538 11.5305 2.18449 11.9169 2.46663 12.1991C2.74877 12.4812 3.1352 12.6503 3.80593 12.7405C4.49104 12.8326 5.39415 12.8337 6.66537 12.8337H8.66537C9.93658 12.8337 10.8397 12.8326 11.5248 12.7405C12.1955 12.6503 12.582 12.4812 12.8641 12.1991C13.1965 11.8667 13.3681 11.3946 13.444 10.5003ZM13.9477 6.50048C13.9342 6.50033 13.9164 6.50033 13.8876 6.50033H12.1525C11.2036 6.50033 10.4987 7.20615 10.4987 8.00033C10.4987 8.7945 11.2036 9.50033 12.1525 9.50033H13.8876C13.9164 9.50033 13.9342 9.50032 13.9477 9.50018C13.956 9.50009 13.9604 9.49996 13.9625 9.49989L13.964 9.49982C14.1014 9.49146 14.1605 9.3987 14.165 9.34292C14.165 9.34292 14.1651 9.33872 14.1652 9.33271C14.1654 9.32088 14.1654 9.30511 14.1654 9.2781V6.72255C14.1654 6.69554 14.1654 6.67977 14.1652 6.66794C14.1651 6.66191 14.165 6.65772 14.165 6.65772C14.1605 6.60194 14.1014 6.50919 13.964 6.50083C13.964 6.50083 13.9607 6.50061 13.9477 6.50048ZM4.66536 5.50033C4.94151 5.50033 5.16537 5.72418 5.16537 6.00033V10.0003C5.16537 10.2765 4.94151 10.5003 4.66536 10.5003C4.38922 10.5003 4.16536 10.2765 4.16536 10.0003V6.00033C4.16536 5.72418 4.38922 5.50033 4.66536 5.50033Z" fill="#1C274C"/>
</svg>
