<svg width="25" height="24" viewBox="0 0 25 24" fill="none" xmlns="http://www.w3.org/2000/svg">
<path d="M8.75903 3.86687L9.15453 4.50412L8.75903 3.86687ZM16.991 3.86687L16.5955 4.50412H16.5955L16.991 3.86687ZM18.991 5.10812L19.3865 4.47088L18.991 5.10812ZM6.75903 5.10813L7.15453 5.74537L6.75903 5.10813ZM15.875 18.75C16.2892 18.75 16.625 18.4142 16.625 18C16.625 17.5858 16.2892 17.25 15.875 17.25V18.75ZM9.875 17.25C9.46079 17.25 9.125 17.5858 9.125 18C9.125 18.4142 9.46079 18.75 9.875 18.75V17.25ZM14.875 21.25H10.875V22.75H14.875V21.25ZM7.15453 5.74537L9.15453 4.50412L8.36354 3.22962L6.36354 4.47088L7.15453 5.74537ZM16.5955 4.50412L18.5955 5.74537L19.3865 4.47088L17.3865 3.22962L16.5955 4.50412ZM3.625 13.725V12.2039H2.125V13.725H3.625ZM22.125 12.2039V13.725H23.625V12.2039H22.125ZM9.15453 4.50412C10.1703 3.87371 10.8845 3.43153 11.4815 3.1412C12.0632 2.85833 12.4752 2.75 12.875 2.75V1.25C12.1669 1.25 11.5235 1.45282 10.8256 1.79224C10.1429 2.12419 9.35313 2.61545 8.36354 3.22962L9.15453 4.50412ZM17.3865 3.22962C16.3969 2.61545 15.6071 2.12419 14.9244 1.79224C14.2265 1.45282 13.5831 1.25 12.875 1.25V2.75C13.2748 2.75 13.6868 2.85833 14.2685 3.14119C14.8655 3.43153 15.5797 3.87371 16.5955 4.50412L17.3865 3.22962ZM10.875 21.25C8.96747 21.25 7.61483 21.2483 6.58922 21.1057C5.58786 20.9664 5.01014 20.7058 4.58579 20.2669L3.50736 21.3094C4.25458 22.0824 5.20546 22.4277 6.38261 22.5914C7.53551 22.7517 9.01129 22.75 10.875 22.75V21.25ZM2.125 13.725C2.125 15.6549 2.12351 17.1753 2.2777 18.3616C2.43437 19.567 2.76356 20.5401 3.50736 21.3094L4.58579 20.2669C4.15801 19.8244 3.90141 19.2163 3.76519 18.1683C3.62649 17.1012 3.625 15.6959 3.625 13.725H2.125ZM14.875 22.75C16.7387 22.75 18.2145 22.7517 19.3674 22.5914C20.5445 22.4277 21.4954 22.0824 22.2426 21.3094L21.1642 20.2669C20.7399 20.7058 20.1621 20.9664 19.1608 21.1057C18.1352 21.2483 16.7825 21.25 14.875 21.25V22.75ZM22.125 13.725C22.125 15.6959 22.1235 17.1012 21.9848 18.1683C21.8486 19.2163 21.592 19.8244 21.1642 20.2669L22.2426 21.3094C22.9864 20.5401 23.3156 19.567 23.4723 18.3616C23.6265 17.1753 23.625 15.6549 23.625 13.725H22.125ZM18.5955 5.74537C19.5563 6.34169 20.2309 6.76135 20.7341 7.1467C21.2237 7.52164 21.5053 7.83106 21.6979 8.18285L23.0137 7.46263C22.6871 6.86589 22.2349 6.40669 21.6461 5.95581C21.0709 5.51533 20.3227 5.05194 19.3865 4.47088L18.5955 5.74537ZM23.625 12.2039C23.625 11.0736 23.6258 10.1745 23.5568 9.4407C23.4864 8.69174 23.3396 8.05812 23.0137 7.46263L21.6979 8.18285C21.8912 8.53589 22.004 8.94865 22.0634 9.58104C22.1242 10.2286 22.125 11.0458 22.125 12.2039H23.625ZM6.36354 4.47088C5.42728 5.05195 4.67906 5.51533 4.1039 5.95581C3.51515 6.40669 3.06295 6.86589 2.73631 7.46263L4.05209 8.18285C4.24465 7.83106 4.52633 7.52164 5.01592 7.1467C5.5191 6.76135 6.19369 6.34169 7.15453 5.74537L6.36354 4.47088ZM3.625 12.2039C3.625 11.0458 3.62576 10.2286 3.68661 9.58104C3.74603 8.94865 3.85885 8.53589 4.05209 8.18285L2.73631 7.46263C2.41035 8.05812 2.26357 8.69174 2.19319 9.4407C2.12424 10.1745 2.125 11.0736 2.125 12.2039H3.625ZM15.875 17.25H9.875V18.75H15.875V17.25Z" fill="white"/>
</svg>
