<svg width="24" height="24" viewBox="0 0 24 24" fill="none" xmlns="http://www.w3.org/2000/svg">
<path d="M18.998 14.2868L18.654 13.9438L18.639 13.9278L18.6179 13.9068C18.2266 13.5165 17.91 13.2006 17.631 12.9658C17.339 12.7198 17.055 12.5318 16.722 12.4318C16.2511 12.2898 15.7489 12.2898 15.278 12.4318C14.945 12.5318 14.661 12.7198 14.368 12.9658C14.0901 13.2005 13.7736 13.5162 13.3826 13.9063L13.361 13.9278L13.346 13.9438C13.046 14.2438 12.846 14.4439 12.683 14.5778C12.522 14.7108 12.452 14.7328 12.423 14.7378C12.3024 14.759 12.1782 14.7352 12.074 14.6708C12.05 14.6548 11.993 14.6088 11.893 14.4258C11.7548 14.1529 11.628 13.8743 11.513 13.5908L11.46 13.4668L11.447 13.4378C11.083 12.5878 10.793 11.9108 10.511 11.4098C10.224 10.8998 9.905 10.4948 9.446 10.2648C9.03467 10.0588 8.57444 9.97018 8.116 10.0088C7.603 10.0518 7.157 10.3088 6.701 10.6758C6.253 11.0368 5.732 11.5568 5.078 12.2118L5.056 12.2328L5 12.2898V13.7038L5.763 12.9398C6.444 12.2598 6.927 11.7778 7.328 11.4548C7.728 11.1338 7.983 11.0238 8.199 11.0048C8.47444 10.9816 8.75094 11.0349 8.998 11.1588C9.192 11.2558 9.388 11.4528 9.639 11.8998C9.892 12.3498 10.161 12.9748 10.54 13.8598L10.594 13.9848L10.604 14.0078L10.6048 14.0097C10.7584 14.3688 10.8882 14.6723 11.014 14.9038C11.144 15.1428 11.304 15.3698 11.548 15.5208C11.861 15.7146 12.2344 15.7865 12.597 15.7228C12.879 15.6728 13.111 15.5208 13.32 15.3478C13.524 15.1798 13.758 14.9458 14.036 14.6678L14.053 14.6508C14.473 14.2308 14.766 13.9388 15.013 13.7308C15.255 13.5258 15.419 13.4338 15.567 13.3888C15.849 13.3038 16.151 13.3038 16.433 13.3888C16.581 13.4338 16.745 13.5258 16.987 13.7298C17.234 13.9388 17.527 14.2308 17.947 14.6508L18.976 15.6788C18.989 15.2688 18.995 14.8088 18.998 14.2868Z" fill="#E04A43"/>
<path d="M18 7.5C18 8.32843 17.3284 9 16.5 9C15.6716 9 15 8.32843 15 7.5C15 6.67157 15.6716 6 16.5 6C17.3284 6 18 6.67157 18 7.5Z" fill="#E04A43"/>
<path fill-rule="evenodd" clip-rule="evenodd" d="M10.9613 2.5H13.0387C14.8914 2.49999 16.3331 2.49999 17.4556 2.65096C18.6002 2.8049 19.4875 3.124 20.1814 3.8183C20.8759 4.51221 21.1951 5.39965 21.349 6.54435C21.5 7.66688 21.5 9.10858 21.5 10.9613V13.0387C21.5 14.8914 21.5 16.3331 21.349 17.4556C21.1951 18.6003 20.876 19.4877 20.1816 20.1816C19.4877 20.876 18.6003 21.1951 17.4556 21.349C16.3331 21.5 14.8914 21.5 13.0387 21.5H10.9613C9.10858 21.5 7.66688 21.5 6.54435 21.349C5.39965 21.1951 4.51221 20.8759 3.8183 20.1814C3.124 19.4875 2.8049 18.6002 2.65096 17.4556C2.49999 16.3331 2.49999 14.8914 2.5 13.0387V10.9613C2.49999 9.10858 2.49999 7.66687 2.65096 6.54435C2.80491 5.39973 3.12404 4.51234 3.81845 3.81845C4.51234 3.12404 5.39973 2.80491 6.54435 2.65096C7.66687 2.49999 9.10858 2.49999 10.9613 2.5ZM6.67765 3.64204C5.64385 3.78108 5.00279 4.04791 4.5257 4.5254C4.04821 5.00249 3.78108 5.64385 3.64204 6.67765C3.50106 7.72582 3.5 9.10036 3.5 11V13C3.5 14.8996 3.50106 16.2742 3.64204 17.3224C3.78108 18.3561 4.04791 18.9972 4.5254 19.4743C5.00249 19.9518 5.64385 20.2189 6.67765 20.358C7.72582 20.4989 9.10036 20.5 11 20.5H13C14.8996 20.5 16.2742 20.4989 17.3224 20.358C18.3561 20.2189 18.9972 19.9521 19.4743 19.4746C19.9518 18.9975 20.2189 18.3561 20.358 17.3224C20.4989 16.2742 20.5 14.8996 20.5 13V11C20.5 9.10036 20.4989 7.72582 20.358 6.67765C20.2189 5.64385 19.9521 5.00279 19.4746 4.5257C18.9975 4.04821 18.3561 3.78108 17.3224 3.64204C16.2742 3.50106 14.8996 3.5 13 3.5H11C9.10036 3.5 7.72582 3.50106 6.67765 3.64204Z" fill="#E04A43"/>
</svg>
