<svg width="25" height="24" viewBox="0 0 25 24" fill="none" xmlns="http://www.w3.org/2000/svg">
<path d="M13.4617 21.3877L14.1071 21.7697L13.4617 21.3877ZM14.0038 20.4718L13.3583 20.0898L14.0038 20.4718ZM10.7462 20.4718L10.1008 20.8539H10.1008L10.7462 20.4718ZM11.2883 21.3877L11.9337 21.0057L11.2883 21.3877ZM13.875 2.75C14.2892 2.75 14.625 2.41421 14.625 2C14.625 1.58579 14.2892 1.25 13.875 1.25V2.75ZM23.125 10.5C23.125 10.0858 22.7892 9.75 22.375 9.75C21.9608 9.75 21.625 10.0858 21.625 10.5H23.125ZM2.7556 15.9134L3.44851 15.6264V15.6264L2.7556 15.9134ZM8.16458 18.9915L8.15166 19.7413L8.16458 18.9915ZM5.46158 18.6194L5.17457 19.3123H5.17457L5.46158 18.6194ZM21.9944 15.9134L22.6873 16.2004V16.2004L21.9944 15.9134ZM16.5854 18.9915L16.5725 18.2416L16.5854 18.9915ZM19.2884 18.6194L19.5754 19.3123H19.5754L19.2884 18.6194ZM4.76251 2.7368L4.37063 2.09732V2.09732L4.76251 2.7368ZM3.1118 4.38751L2.47232 3.99563H2.47232L3.1118 4.38751ZM9.77779 19.2098L10.1549 18.5615L10.1549 18.5615L9.77779 19.2098ZM14.1071 21.7697L14.6492 20.8539L13.3583 20.0898L12.8162 21.0057L14.1071 21.7697ZM10.1008 20.8539L10.6429 21.7697L11.9337 21.0057L11.3916 20.0898L10.1008 20.8539ZM12.8162 21.0057C12.6235 21.3313 12.1265 21.3313 11.9337 21.0057L10.6429 21.7697C11.4165 23.0767 13.3335 23.0767 14.1071 21.7697L12.8162 21.0057ZM10.875 2.75H13.875V1.25H10.875V2.75ZM21.625 10.5V11.5H23.125V10.5H21.625ZM3.125 11.5V10.5H1.625V11.5H3.125ZM1.625 11.5C1.625 12.6546 1.62459 13.5581 1.67431 14.2868C1.7245 15.0223 1.82823 15.6344 2.06269 16.2004L3.44851 15.6264C3.30237 15.2736 3.21581 14.8438 3.17084 14.1847C3.12541 13.5189 3.125 12.6751 3.125 11.5H1.625ZM8.1775 18.2416C6.92206 18.2199 6.26423 18.1401 5.74859 17.9265L5.17457 19.3123C5.97954 19.6457 6.89638 19.7197 8.15166 19.7413L8.1775 18.2416ZM2.06269 16.2004C2.64628 17.6093 3.76566 18.7287 5.17457 19.3123L5.7486 17.9265C4.70723 17.4951 3.87986 16.6678 3.44851 15.6264L2.06269 16.2004ZM21.625 11.5C21.625 12.6751 21.6246 13.5189 21.5792 14.1847C21.5342 14.8438 21.4476 15.2736 21.3015 15.6264L22.6873 16.2004C22.9218 15.6344 23.0255 15.0223 23.0757 14.2868C23.1254 13.5581 23.125 12.6546 23.125 11.5H21.625ZM16.5983 19.7413C17.8536 19.7197 18.7705 19.6457 19.5754 19.3123L19.0014 17.9265C18.4858 18.1401 17.8279 18.2199 16.5725 18.2416L16.5983 19.7413ZM21.3015 15.6264C20.8701 16.6678 20.0428 17.4951 19.0014 17.9265L19.5754 19.3123C20.9843 18.7287 22.1037 17.6093 22.6873 16.2004L21.3015 15.6264ZM10.875 1.25C9.25281 1.25 7.9835 1.24921 6.97111 1.34547C5.94756 1.44279 5.10945 1.64457 4.37063 2.09732L5.15438 3.37628C5.61791 3.09223 6.19934 2.92561 7.11309 2.83873C8.038 2.75079 9.22376 2.75 10.875 2.75V1.25ZM3.125 10.5C3.125 8.84876 3.12579 7.663 3.21373 6.73809C3.30061 5.82434 3.46723 5.24291 3.75128 4.77938L2.47232 3.99563C2.01957 4.73445 1.81779 5.57256 1.72047 6.59611C1.62421 7.6085 1.625 8.87781 1.625 10.5H3.125ZM4.37063 2.09732C3.59694 2.57144 2.94644 3.22194 2.47232 3.99563L3.75128 4.77938C4.10172 4.20752 4.58252 3.72672 5.15438 3.37628L4.37063 2.09732ZM11.3916 20.0898C11.1886 19.7468 11.0104 19.4441 10.8371 19.2063C10.6545 18.9559 10.4452 18.7304 10.1549 18.5615L9.40072 19.8582C9.44813 19.8857 9.51272 19.936 9.62485 20.0898C9.74622 20.2564 9.88335 20.4865 10.1008 20.8539L11.3916 20.0898ZM8.15166 19.7413C8.59075 19.7489 8.86887 19.7545 9.08088 19.7779C9.27899 19.7999 9.35578 19.832 9.40072 19.8582L10.1549 18.5615C9.8621 18.3912 9.55746 18.3215 9.24597 18.287C8.94839 18.2541 8.58875 18.2487 8.1775 18.2416L8.15166 19.7413ZM14.6492 20.8539C14.8666 20.4865 15.0037 20.2564 15.1251 20.0898C15.2372 19.936 15.3018 19.8857 15.3492 19.8582L14.5951 18.5615C14.3048 18.7304 14.0954 18.9559 13.9129 19.2063C13.7396 19.4441 13.5614 19.7468 13.3583 20.0898L14.6492 20.8539ZM16.5725 18.2416C16.1612 18.2487 15.8016 18.2541 15.504 18.287C15.1925 18.3215 14.8879 18.3912 14.5951 18.5615L15.3492 19.8582C15.3942 19.832 15.471 19.7999 15.6691 19.7779C15.8811 19.7545 16.1592 19.7489 16.5983 19.7413L16.5725 18.2416Z" fill="white" fill-opacity="0.6"/>
<circle cx="19.375" cy="5" r="3" stroke="white" stroke-opacity="0.6" stroke-width="1.5"/>
</svg>
