<svg width="20" height="21" viewBox="0 0 20 21" fill="none" xmlns="http://www.w3.org/2000/svg">
<path d="M18.332 4.66602C18.332 6.04673 17.2127 7.16602 15.832 7.16602C14.4513 7.16602 13.332 6.04673 13.332 4.66602C13.332 3.2853 14.4513 2.16602 15.832 2.16602C17.2127 2.16602 18.332 3.2853 18.332 4.66602Z" fill="#171719"/>
<path fill-rule="evenodd" clip-rule="evenodd" d="M13.0113 2.1979C12.1596 2.16602 11.1669 2.16602 10.0013 2.16602C6.07293 2.16602 4.10875 2.16602 2.88836 3.3864C1.66797 4.60679 1.66797 6.57098 1.66797 10.4993C1.66797 14.4277 1.66797 16.3919 2.88836 17.6123C4.10875 18.8327 6.07293 18.8327 10.0013 18.8327C13.9297 18.8327 15.8939 18.8327 17.1142 17.6123C18.3346 16.3919 18.3346 14.4277 18.3346 10.4993C18.3346 9.33371 18.3346 8.34101 18.3028 7.48936C17.6432 8.06637 16.7798 8.41602 15.8346 8.41602C13.7636 8.41602 12.0846 6.73708 12.0846 4.66602C12.0846 3.72088 12.4343 2.85741 13.0113 2.1979ZM14.5681 8.35254C14.8333 8.57352 14.8691 8.96762 14.6481 9.2328L13.1241 11.0616C12.8504 11.3902 12.6036 11.6864 12.3731 11.8945C12.1223 12.1209 11.8064 12.3226 11.3902 12.3226C10.974 12.3226 10.6581 12.1209 10.4073 11.8945C10.1768 11.6864 9.93003 11.3902 9.65631 11.0616L9.41264 10.7692C9.10365 10.3984 8.9139 10.1731 8.75758 10.0319C8.68508 9.96648 8.64208 9.94039 8.62147 9.93041C8.61728 9.92839 8.6143 9.92717 8.61241 9.92647L8.60899 9.92784L8.60336 9.93041C8.58275 9.94039 8.53974 9.96648 8.46725 10.0319C8.31093 10.1731 8.12118 10.3984 7.81218 10.7692L6.31477 12.5661C6.0938 12.8313 5.69969 12.8671 5.43452 12.6462C5.16935 12.4252 5.13352 12.0311 5.3545 11.7659L6.87853 9.93706C7.15225 9.60852 7.39901 9.31235 7.6295 9.10421C7.88029 8.87775 8.19617 8.67606 8.61241 8.67606C9.02865 8.67606 9.34454 8.87775 9.59532 9.10421C9.82582 9.31235 10.0726 9.60852 10.3463 9.93706L10.59 10.2295C10.899 10.6003 11.0887 10.8256 11.245 10.9668C11.3175 11.0322 11.3605 11.0583 11.3811 11.0683L11.3838 11.0695C11.3866 11.0708 11.3902 11.0722 11.3902 11.0722C11.3921 11.0715 11.3951 11.0703 11.3992 11.0683C11.4199 11.0583 11.4629 11.0322 11.5354 10.9668C11.6917 10.8256 11.8814 10.6003 12.1904 10.2295L13.6878 8.43257C13.9088 8.16739 14.3029 8.13157 14.5681 8.35254Z" fill="#171719"/>
</svg>
