<svg width="16" height="16" viewBox="0 0 16 16" fill="none" xmlns="http://www.w3.org/2000/svg">
<path d="M10.332 7.33398C10.6098 7.33398 10.8459 7.23676 11.0404 7.04232C11.2348 6.84787 11.332 6.61176 11.332 6.33398C11.332 6.05621 11.2348 5.8201 11.0404 5.62565C10.8459 5.43121 10.6098 5.33398 10.332 5.33398C10.0543 5.33398 9.81814 5.43121 9.6237 5.62565C9.42925 5.8201 9.33203 6.05621 9.33203 6.33398C9.33203 6.61176 9.42925 6.84787 9.6237 7.04232C9.81814 7.23676 10.0543 7.33398 10.332 7.33398ZM5.66536 7.33398C5.94314 7.33398 6.17925 7.23676 6.3737 7.04232C6.56814 6.84787 6.66536 6.61176 6.66536 6.33398C6.66536 6.05621 6.56814 5.8201 6.3737 5.62565C6.17925 5.43121 5.94314 5.33398 5.66536 5.33398C5.38759 5.33398 5.15148 5.43121 4.95703 5.62565C4.76259 5.8201 4.66536 6.05621 4.66536 6.33398C4.66536 6.61176 4.76259 6.84787 4.95703 7.04232C5.15148 7.23676 5.38759 7.33398 5.66536 7.33398ZM7.9987 11.6673C8.75425 11.6673 9.44036 11.4534 10.057 11.0257C10.6737 10.5979 11.1209 10.034 11.3987 9.33398H4.5987C4.87648 10.034 5.3237 10.5979 5.94036 11.0257C6.55703 11.4534 7.24314 11.6673 7.9987 11.6673ZM7.9987 14.6673C7.07648 14.6673 6.20981 14.4923 5.3987 14.1423C4.58759 13.7923 3.88203 13.3173 3.28203 12.7173C2.68203 12.1173 2.20703 11.4118 1.85703 10.6007C1.50703 9.78954 1.33203 8.92287 1.33203 8.00065C1.33203 7.07843 1.50703 6.21176 1.85703 5.40065C2.20703 4.58954 2.68203 3.88398 3.28203 3.28398C3.88203 2.68398 4.58759 2.20898 5.3987 1.85898C6.20981 1.50898 7.07648 1.33398 7.9987 1.33398C8.92092 1.33398 9.78759 1.50898 10.5987 1.85898C11.4098 2.20898 12.1154 2.68398 12.7154 3.28398C13.3154 3.88398 13.7904 4.58954 14.1404 5.40065C14.4904 6.21176 14.6654 7.07843 14.6654 8.00065C14.6654 8.92287 14.4904 9.78954 14.1404 10.6007C13.7904 11.4118 13.3154 12.1173 12.7154 12.7173C12.1154 13.3173 11.4098 13.7923 10.5987 14.1423C9.78759 14.4923 8.92092 14.6673 7.9987 14.6673ZM7.9987 13.334C9.48759 13.334 10.7487 12.8173 11.782 11.784C12.8154 10.7507 13.332 9.48954 13.332 8.00065C13.332 6.51176 12.8154 5.25065 11.782 4.21732C10.7487 3.18398 9.48759 2.66732 7.9987 2.66732C6.50981 2.66732 5.2487 3.18398 4.21536 4.21732C3.18203 5.25065 2.66536 6.51176 2.66536 8.00065C2.66536 9.48954 3.18203 10.7507 4.21536 11.784C5.2487 12.8173 6.50981 13.334 7.9987 13.334Z" fill="#171719"/>
</svg>
