<svg width="94" height="32" viewBox="0 0 94 32" fill="none" xmlns="http://www.w3.org/2000/svg">
<path d="M28.5195 20.4757V10.4572H30.4993V20.4757H28.5195Z" fill="white"/>
<path d="M32.5262 20.4757V13.0191H34.3967V13.6345C34.9338 13.1288 35.5982 12.876 36.3901 12.876C36.9453 12.876 37.4323 13.0048 37.851 13.2624C38.2788 13.5105 38.611 13.8587 38.8477 14.3072C39.0843 14.7461 39.2027 15.2613 39.2027 15.8529V20.4757H37.3322V16.1391C37.3322 15.6525 37.2002 15.2709 36.9362 14.9942C36.6723 14.7079 36.3127 14.5648 35.8576 14.5648C35.5391 14.5648 35.2569 14.6316 35.0111 14.7652C34.7654 14.8892 34.5606 15.0705 34.3967 15.309V20.4757H32.5262Z" fill="white"/>
<path d="M41.152 20.4757V10.4572H45.6439C46.2902 10.4572 46.8545 10.5717 47.3369 10.8007C47.8193 11.0297 48.1971 11.3541 48.4701 11.774C48.7432 12.1842 48.8797 12.6613 48.8797 13.2052C48.8797 13.6441 48.7705 14.0496 48.5521 14.4217C48.3427 14.7843 48.056 15.08 47.6919 15.309C48.1561 15.538 48.5248 15.8481 48.7978 16.2393C49.0709 16.6305 49.2074 17.0742 49.2074 17.5703C49.2074 18.1428 49.0663 18.6485 48.7842 19.0874C48.5111 19.5263 48.1197 19.8698 47.61 20.1179C47.1094 20.3564 46.5268 20.4757 45.8624 20.4757H41.152ZM43.1317 14.5505H45.521C45.9488 14.5505 46.2856 14.4455 46.5314 14.2356C46.7862 14.0162 46.9137 13.7252 46.9137 13.3626C46.9137 13 46.7862 12.7138 46.5314 12.5039C46.2856 12.2844 45.9488 12.1747 45.521 12.1747H43.1317V14.5505ZM43.1317 18.7583H45.7122C46.1673 18.7583 46.5314 18.6438 46.8045 18.4148C47.0775 18.1762 47.214 17.8614 47.214 17.4702C47.214 17.0694 47.0775 16.7546 46.8045 16.5256C46.5314 16.287 46.1673 16.1678 45.7122 16.1678H43.1317V18.7583Z" fill="#CCED49"/>
<path d="M55.5513 20.6331C54.8413 20.6331 54.1814 20.5043 53.5716 20.2467C52.9617 19.9796 52.4247 19.6122 51.9605 19.1447C51.5054 18.6676 51.1458 18.119 50.8819 17.4988C50.627 16.8691 50.4996 16.1916 50.4996 15.4665C50.4996 14.7413 50.627 14.0687 50.8819 13.4485C51.1458 12.8187 51.5054 12.2701 51.9605 11.8026C52.4247 11.3255 52.9617 10.9582 53.5716 10.7005C54.1814 10.4334 54.8413 10.2998 55.5513 10.2998C56.2613 10.2998 56.9212 10.4334 57.531 10.7005C58.15 10.9582 58.687 11.3255 59.1421 11.8026C59.6063 12.2701 59.9658 12.8187 60.2207 13.4485C60.4756 14.0687 60.603 14.7413 60.603 15.4665C60.603 16.1916 60.4756 16.8691 60.2207 17.4988C59.9658 18.119 59.6063 18.6676 59.1421 19.1447C58.687 19.6122 58.15 19.9796 57.531 20.2467C56.9212 20.5043 56.2613 20.6331 55.5513 20.6331ZM55.5513 18.7296C55.9882 18.7296 56.3887 18.6485 56.7528 18.4863C57.1169 18.3146 57.4354 18.0856 57.7085 17.7993C57.9816 17.5036 58.1955 17.1553 58.3502 16.7546C58.5049 16.3538 58.5823 15.9245 58.5823 15.4665C58.5823 14.9989 58.5049 14.5696 58.3502 14.1784C58.1955 13.7776 57.9816 13.4342 57.7085 13.1479C57.4354 12.8521 57.1169 12.6231 56.7528 12.4609C56.3887 12.2892 55.9882 12.2033 55.5513 12.2033C55.1235 12.2033 54.7275 12.2892 54.3634 12.4609C53.9994 12.6231 53.6808 12.8521 53.4077 13.1479C53.1347 13.4342 52.9208 13.7776 52.766 14.1784C52.6113 14.5696 52.5339 14.9942 52.5339 15.4522C52.5339 15.9197 52.6113 16.3538 52.766 16.7546C52.9208 17.1553 53.1347 17.5036 53.4077 17.7993C53.6808 18.0856 53.9994 18.3146 54.3634 18.4863C54.7275 18.6485 55.1235 18.7296 55.5513 18.7296Z" fill="#CCED49"/>
<path d="M67.0675 20.6331C66.3575 20.6331 65.6976 20.5043 65.0878 20.2467C64.4779 19.9796 63.9409 19.6122 63.4767 19.1447C63.0216 18.6676 62.662 18.119 62.3981 17.4988C62.1432 16.8691 62.0158 16.1916 62.0158 15.4665C62.0158 14.7413 62.1432 14.0687 62.3981 13.4485C62.662 12.8187 63.0216 12.2701 63.4767 11.8026C63.9409 11.3255 64.4779 10.9582 65.0878 10.7005C65.6976 10.4334 66.3575 10.2998 67.0675 10.2998C67.7775 10.2998 68.4374 10.4334 69.0472 10.7005C69.6662 10.9582 70.2032 11.3255 70.6583 11.8026C71.1225 12.2701 71.482 12.8187 71.7369 13.4485C71.9918 14.0687 72.1192 14.7413 72.1192 15.4665C72.1192 16.1916 71.9918 16.8691 71.7369 17.4988C71.482 18.119 71.1225 18.6676 70.6583 19.1447C70.2032 19.6122 69.6662 19.9796 69.0472 20.2467C68.4374 20.5043 67.7775 20.6331 67.0675 20.6331ZM67.0675 18.7296C67.5044 18.7296 67.9049 18.6485 68.269 18.4863C68.6331 18.3146 68.9516 18.0856 69.2247 17.7993C69.4978 17.5036 69.7117 17.1553 69.8664 16.7546C70.0211 16.3538 70.0985 15.9245 70.0985 15.4665C70.0985 14.9989 70.0211 14.5696 69.8664 14.1784C69.7117 13.7776 69.4978 13.4342 69.2247 13.1479C68.9516 12.8521 68.6331 12.6231 68.269 12.4609C67.9049 12.2892 67.5044 12.2033 67.0675 12.2033C66.6397 12.2033 66.2437 12.2892 65.8797 12.4609C65.5156 12.6231 65.197 12.8521 64.9239 13.1479C64.6509 13.4342 64.437 13.7776 64.2822 14.1784C64.1275 14.5696 64.0501 14.9942 64.0501 15.4522C64.0501 15.9197 64.1275 16.3538 64.2822 16.7546C64.437 17.1553 64.6509 17.5036 64.9239 17.7993C65.197 18.0856 65.5156 18.3146 65.8797 18.4863C66.2437 18.6485 66.6397 18.7296 67.0675 18.7296Z" fill="#CCED49"/>
<path d="M77.3139 20.6188C76.5403 20.6188 75.7848 20.4709 75.0475 20.1751C74.3102 19.8698 73.6549 19.4405 73.0814 18.8871L74.2147 17.3986C74.7699 17.9138 75.3024 18.286 75.8121 18.5149C76.3309 18.7439 76.877 18.8584 77.4505 18.8584C77.851 18.8584 78.1969 18.8107 78.4881 18.7153C78.7794 18.6104 79.0024 18.4625 79.1571 18.2716C79.321 18.0808 79.4029 17.8566 79.4029 17.599C79.4029 17.2555 79.2846 16.9931 79.0479 16.8118C78.8113 16.621 78.4062 16.4731 77.8328 16.3681L75.935 16.0246C75.1249 15.8815 74.5059 15.581 74.0781 15.123C73.6594 14.665 73.4501 14.0734 73.4501 13.3483C73.4501 12.7281 73.6003 12.189 73.9006 11.731C74.2101 11.273 74.6425 10.9248 75.1977 10.6862C75.762 10.4382 76.431 10.3141 77.2047 10.3141C77.9056 10.3141 78.6019 10.4382 79.2937 10.6862C79.9945 10.9343 80.6135 11.2778 81.1505 11.7167L80.0856 13.2624C79.0843 12.4609 78.0785 12.0602 77.0682 12.0602C76.7132 12.0602 76.4037 12.1079 76.1398 12.2033C75.8758 12.2987 75.671 12.4323 75.5254 12.6041C75.3888 12.7663 75.3206 12.9619 75.3206 13.1908C75.3206 13.4962 75.4252 13.7347 75.6346 13.9065C75.8439 14.0687 76.1944 14.1927 76.6859 14.2786L78.4881 14.5934C79.4439 14.7556 80.1584 15.0753 80.6317 15.5523C81.105 16.0199 81.3417 16.6401 81.3417 17.4129C81.3417 18.0617 81.1778 18.6294 80.8501 19.1161C80.5225 19.5931 80.0537 19.9652 79.4439 20.2324C78.8431 20.49 78.1331 20.6188 77.3139 20.6188Z" fill="#CCED49"/>
<path d="M85.3313 20.4757V12.2892H82.1091V10.4572H90.5195V12.2892H87.311V20.4757H85.3313Z" fill="#CCED49"/>
<rect x="0.484375" y="3.06641" width="24.8" height="24.8" rx="12.4" fill="url(#paint0_linear_2240_2930)"/>
<path d="M12.5129 16.9337V20.2804C12.5129 20.594 12.5129 20.861 12.5328 21.0522C12.5432 21.1482 12.5616 21.2615 12.6067 21.3628C12.6369 21.4355 12.6835 21.5001 12.7428 21.5512C12.8022 21.6023 12.8725 21.6384 12.9482 21.6568C13.0245 21.6724 13.1033 21.6695 13.1783 21.6484C13.2533 21.6273 13.3224 21.5885 13.3798 21.5353C13.4571 21.4623 13.5229 21.3779 13.575 21.2848C13.6725 21.1197 13.7827 20.8775 13.9127 20.5932L13.9231 20.5715L15.9409 16.1462L15.9542 16.1184C16.1619 15.6632 16.3356 15.2829 16.4257 14.9731C16.5189 14.6506 16.5499 14.3123 16.3555 14.0026C16.1611 13.6936 15.8448 13.5803 15.5174 13.5308C15.2025 13.4835 14.7893 13.4835 14.2949 13.4835H13.252V10.1368C13.252 9.82332 13.252 9.55631 13.232 9.36505C13.2231 9.25832 13.1982 9.1536 13.1581 9.05453C13.128 8.98174 13.0813 8.91719 13.022 8.86611C12.9627 8.81503 12.8923 8.77885 12.8166 8.76051C12.7404 8.7443 12.6614 8.74687 12.5863 8.76801C12.5112 8.78915 12.4421 8.82825 12.385 8.88202C12.3077 8.95494 12.2419 9.03942 12.1899 9.13253C12.0923 9.29754 11.9822 9.53981 11.8521 9.82407L11.8417 9.84582L9.82396 14.2711L9.81066 14.2988C9.60296 14.7541 9.42927 15.1344 9.3391 15.4442C9.24597 15.7667 9.21419 16.1049 9.40932 16.4147C9.6037 16.7237 9.92004 16.837 10.2475 16.8865C10.5623 16.9337 10.9755 16.9337 11.47 16.9337H12.5129Z" fill="#E0F97B"/>
<defs>
<linearGradient id="paint0_linear_2240_2930" x1="12.8844" y1="3.06641" x2="12.8844" y2="27.8664" gradientUnits="userSpaceOnUse">
<stop stop-color="#8065FF"/>
<stop offset="1" stop-color="#4317B4"/>
</linearGradient>
</defs>
</svg>
