<svg width="20" height="21" viewBox="0 0 20 21" fill="none" xmlns="http://www.w3.org/2000/svg">
<path fill-rule="evenodd" clip-rule="evenodd" d="M2.88836 3.3864C1.66797 4.60679 1.66797 6.57098 1.66797 10.4993C1.66797 14.4277 1.66797 16.3919 2.88836 17.6123C4.10875 18.8327 6.07293 18.8327 10.0013 18.8327C13.9297 18.8327 15.8939 18.8327 17.1142 17.6123C18.3346 16.3919 18.3346 14.4277 18.3346 10.4993C18.3346 6.57098 18.3346 4.60679 17.1142 3.3864C15.8939 2.16602 13.9297 2.16602 10.0013 2.16602C6.07293 2.16602 4.10875 2.16602 2.88836 3.3864ZM8.29461 5.70768C7.9364 5.70762 7.6015 5.70757 7.3279 5.74844C7.01882 5.79461 6.7013 5.90376 6.44749 6.18578C6.20216 6.45836 6.11555 6.78319 6.078 7.09346C6.04291 7.38348 6.04294 7.743 6.04297 8.14897L6.04297 8.62435C6.04297 8.96953 6.32279 9.24935 6.66797 9.24935C7.01315 9.24935 7.29297 8.96953 7.29297 8.62435V8.18454C7.29297 7.73211 7.29405 7.44944 7.31895 7.24362C7.33064 7.14706 7.34524 7.09141 7.35705 7.05953C7.36701 7.03262 7.37413 7.02473 7.37649 7.02211L7.37717 7.02133C7.3783 7.01996 7.37914 7.01895 7.38665 7.01552C7.40051 7.00919 7.43604 6.99616 7.51258 6.98472C7.68267 6.95931 7.92223 6.95768 8.33464 6.95768H9.3763V14.041H7.91797C7.57279 14.041 7.29297 14.3208 7.29297 14.666C7.29297 15.0112 7.57279 15.291 7.91797 15.291H12.5013C12.8465 15.291 13.1263 15.0112 13.1263 14.666C13.1263 14.3208 12.8465 14.041 12.5013 14.041H10.6263V6.95768H11.668C12.0804 6.95768 12.3199 6.95931 12.49 6.98472C12.5666 6.99616 12.6021 7.00919 12.616 7.01552C12.6235 7.01895 12.6243 7.01996 12.6254 7.02133L12.626 7.02198C12.6284 7.0246 12.6356 7.03262 12.6456 7.05953C12.6574 7.09141 12.672 7.14706 12.6837 7.24362C12.7086 7.44944 12.7096 7.73211 12.7096 8.18454V8.62435C12.7096 8.96953 12.9895 9.24935 13.3346 9.24935C13.6798 9.24935 13.9596 8.96953 13.9596 8.62435L13.9596 8.14896C13.9597 7.743 13.9597 7.38348 13.9246 7.09346C13.8871 6.78319 13.8004 6.45836 13.5551 6.18578C13.3013 5.90376 12.9838 5.79461 12.6747 5.74844C12.4011 5.70757 12.0662 5.70762 11.708 5.70768H8.29461Z" fill="#171719"/>
</svg>
