<svg width="16" height="16" viewBox="0 0 16 16" fill="none" xmlns="http://www.w3.org/2000/svg">
<path d="M8.52004 11.4935L8.32356 11.0338L8.52004 11.4935ZM6.81329 11.4935L7.00977 11.0338L6.81329 11.4935ZM13.976 9.62986C13.7713 9.44451 13.4551 9.46019 13.2697 9.66488C13.0844 9.86957 13.1001 10.1858 13.3047 10.3711L13.976 9.62986ZM2.02859 10.3711C2.23328 10.1858 2.24896 9.86957 2.06361 9.66488C1.87826 9.46019 1.56206 9.44451 1.35737 9.62986L2.02859 10.3711ZM8.32356 11.0338C7.90733 11.2116 7.426 11.2116 7.00977 11.0338L6.61681 11.9533C7.28403 12.2384 8.0493 12.2384 8.71653 11.9533L8.32356 11.0338ZM2.5 5.34358C2.5 7.88434 4.07526 10.8672 6.61681 11.9533L7.00977 11.0338C4.90362 10.1337 3.5 7.56247 3.5 5.34358H2.5ZM11.8333 5.34358C11.8333 7.56247 10.4297 10.1337 8.32356 11.0338L8.71653 11.9533C11.2581 10.8672 12.8333 7.88434 12.8333 5.34358H11.8333ZM7.66667 1.50049C10.0023 1.50049 11.8333 3.25433 11.8333 5.34358H12.8333C12.8333 2.63558 10.4857 0.500488 7.66667 0.500488V1.50049ZM7.66667 0.500488C4.84764 0.500488 2.5 2.63558 2.5 5.34358H3.5C3.5 3.25433 5.33103 1.50049 7.66667 1.50049V0.500488ZM8.5 5.66715C8.5 6.12739 8.1269 6.50049 7.66667 6.50049V7.50049C8.67919 7.50049 9.5 6.67968 9.5 5.66715H8.5ZM7.66667 6.50049C7.20643 6.50049 6.83333 6.12739 6.83333 5.66715H5.83333C5.83333 6.67968 6.65414 7.50049 7.66667 7.50049V6.50049ZM6.83333 5.66715C6.83333 5.20692 7.20643 4.83382 7.66667 4.83382V3.83382C6.65414 3.83382 5.83333 4.65463 5.83333 5.66715H6.83333ZM7.66667 4.83382C8.1269 4.83382 8.5 5.20692 8.5 5.66715H9.5C9.5 4.65463 8.67919 3.83382 7.66667 3.83382V4.83382ZM13.8333 11.3338C13.8333 11.8429 13.3507 12.4704 12.1755 12.9992C11.0473 13.5069 9.45366 13.8338 7.66667 13.8338V14.8338C9.56157 14.8338 11.3012 14.4892 12.5859 13.9111C13.8236 13.3541 14.8333 12.4816 14.8333 11.3338H13.8333ZM7.66667 13.8338C5.87968 13.8338 4.286 13.5069 3.1578 12.9992C1.98267 12.4704 1.5 11.8429 1.5 11.3338H0.5C0.5 12.4816 1.50971 13.3541 2.74744 13.9111C4.0321 14.4892 5.77176 14.8338 7.66667 14.8338V13.8338ZM13.3047 10.3711C13.6832 10.7138 13.8333 11.0419 13.8333 11.3338H14.8333C14.8333 10.6679 14.4846 10.0905 13.976 9.62986L13.3047 10.3711ZM1.5 11.3338C1.5 11.0419 1.65013 10.7138 2.02859 10.3711L1.35737 9.62986C0.848699 10.0905 0.5 10.6679 0.5 11.3338H1.5Z" fill="white"/>
</svg>
