<svg width="15" height="15" viewBox="0 0 15 15" fill="none" xmlns="http://www.w3.org/2000/svg">
<path d="M1.97631 13.3575L1.62276 13.7111H1.62276L1.97631 13.3575ZM13.357 13.3575L13.7106 13.7111L13.7106 13.7111L13.357 13.3575ZM14.8333 6.66715C14.8333 6.39101 14.6095 6.16715 14.3333 6.16715C14.0572 6.16715 13.8333 6.39101 13.8333 6.66715H14.8333ZM8.66667 1.50049C8.94281 1.50049 9.16667 1.27663 9.16667 1.00049C9.16667 0.724346 8.94281 0.500488 8.66667 0.500488V1.50049ZM3.97978 8.64693C3.78452 8.8422 3.78452 9.15878 3.97978 9.35404C4.17504 9.5493 4.49162 9.5493 4.68689 9.35404L3.97978 8.64693ZM5.86193 7.47189L6.21548 7.82545L5.86193 7.47189ZM6.80474 7.47189L7.15829 7.11834L6.80474 7.47189ZM7.86193 8.52908L7.50837 8.88264V8.88264L7.86193 8.52908ZM8.80474 8.52908L9.15829 8.88264L9.15829 8.88264L8.80474 8.52908ZM11 6.33382H11.5C11.5 6.05768 11.2761 5.83382 11 5.83382V6.33382ZM10.5 8.00049C10.5 8.27663 10.7239 8.50049 11 8.50049C11.2761 8.50049 11.5 8.27663 11.5 8.00049H10.5ZM9.33333 5.83382C9.05719 5.83382 8.83333 6.05768 8.83333 6.33382C8.83333 6.60996 9.05719 6.83382 9.33333 6.83382V5.83382ZM7.66667 13.8338C6.08118 13.8338 4.94237 13.8328 4.07572 13.7162C3.22345 13.6017 2.70963 13.3837 2.32986 13.004L1.62276 13.7111C2.2193 14.3076 2.97931 14.5778 3.94247 14.7073C4.89124 14.8349 6.10945 14.8338 7.66667 14.8338V13.8338ZM0.5 7.66715C0.5 9.22437 0.498938 10.4426 0.626497 11.3914C0.755991 12.3545 1.02622 13.1145 1.62276 13.7111L2.32986 13.004C1.95009 12.6242 1.73216 12.1104 1.61758 11.2581C1.50106 10.3915 1.5 9.25264 1.5 7.66715H0.5ZM13.8333 7.66715C13.8333 9.25264 13.8323 10.3915 13.7158 11.2581C13.6012 12.1104 13.3832 12.6242 13.0035 13.004L13.7106 13.7111C14.3071 13.1145 14.5773 12.3545 14.7068 11.3914C14.8344 10.4426 14.8333 9.22437 14.8333 7.66715H13.8333ZM7.66667 14.8338C9.22388 14.8338 10.4421 14.8349 11.3909 14.7073C12.354 14.5778 13.114 14.3076 13.7106 13.7111L13.0035 13.004C12.6237 13.3837 12.1099 13.6017 11.2576 13.7162C10.391 13.8328 9.25215 13.8338 7.66667 13.8338V14.8338ZM7.66667 0.500488C6.10945 0.500488 4.89124 0.499426 3.94247 0.626986C2.97931 0.756479 2.2193 1.02671 1.62276 1.62325L2.32986 2.33035C2.70963 1.95058 3.22345 1.73265 4.07572 1.61807C4.94237 1.50155 6.08118 1.50049 7.66667 1.50049V0.500488ZM1.5 7.66715C1.5 6.08167 1.50106 4.94286 1.61758 4.07621C1.73216 3.22394 1.95009 2.71012 2.32986 2.33035L1.62276 1.62325C1.02622 2.21979 0.755991 2.9798 0.626497 3.94296C0.498938 4.89173 0.5 6.10994 0.5 7.66715H1.5ZM14.8333 7.66715V6.66715H13.8333V7.66715H14.8333ZM7.66667 1.50049H8.66667V0.500488H7.66667V1.50049ZM13.8333 3.00049C13.8333 3.82892 13.1618 4.50049 12.3333 4.50049V5.50049C13.714 5.50049 14.8333 4.3812 14.8333 3.00049H13.8333ZM12.3333 4.50049C11.5049 4.50049 10.8333 3.82892 10.8333 3.00049H9.83333C9.83333 4.3812 10.9526 5.50049 12.3333 5.50049V4.50049ZM10.8333 3.00049C10.8333 2.17206 11.5049 1.50049 12.3333 1.50049V0.500488C10.9526 0.500488 9.83333 1.61978 9.83333 3.00049H10.8333ZM12.3333 1.50049C13.1618 1.50049 13.8333 2.17206 13.8333 3.00049H14.8333C14.8333 1.61978 13.714 0.500488 12.3333 0.500488V1.50049ZM4.68689 9.35404L6.21548 7.82545L5.50838 7.11834L3.97978 8.64693L4.68689 9.35404ZM6.45118 7.82545L7.50837 8.88264L8.21548 8.17553L7.15829 7.11834L6.45118 7.82545ZM9.15829 8.88264L11.3536 6.68737L10.6464 5.98027L8.45118 8.17553L9.15829 8.88264ZM10.5 6.33382V8.00049H11.5V6.33382H10.5ZM11 5.83382H9.33333V6.83382H11V5.83382ZM7.50837 8.88264C7.96399 9.33825 8.70268 9.33825 9.15829 8.88264L8.45118 8.17553C8.3861 8.24062 8.28057 8.24062 8.21548 8.17553L7.50837 8.88264ZM6.21548 7.82545C6.28057 7.76036 6.3861 7.76036 6.45118 7.82545L7.15829 7.11834C6.70268 6.66273 5.96399 6.66273 5.50838 7.11834L6.21548 7.82545Z" fill="#171719"/>
</svg>
