<svg width="20" height="21" viewBox="0 0 20 21" fill="none" xmlns="http://www.w3.org/2000/svg">
<path fill-rule="evenodd" clip-rule="evenodd" d="M1.69141 9.87435C2.01101 5.56389 5.60952 2.16602 10.0017 2.16602C9.30927 2.16602 8.6928 2.46952 8.18566 2.93362C7.68106 3.39539 7.25464 4.04 6.90974 4.80198C6.56281 5.56845 6.29332 6.46492 6.11093 7.43778C5.96471 8.21763 5.87574 9.03978 5.84608 9.87435H1.69141ZM1.69141 11.1243H5.84608C5.87574 11.9589 5.96471 12.7811 6.11093 13.5609C6.29332 14.5338 6.56281 15.4302 6.90974 16.1967C7.25463 16.9587 7.68106 17.6033 8.18566 18.0651C8.6928 18.5292 9.30927 18.8327 10.0017 18.8327C5.60952 18.8327 2.01101 15.4348 1.69141 11.1243Z" fill="#171719"/>
<path d="M10.0017 3.32881C9.77248 3.32881 9.47642 3.42632 9.13216 3.74136C8.78535 4.05873 8.43816 4.55614 8.13142 5.23383C7.82671 5.90702 7.57929 6.71969 7.40902 7.62784C7.27493 8.34303 7.19175 9.10117 7.16256 9.87435H12.8408C12.8116 9.10117 12.7284 8.34303 12.5943 7.62785C12.424 6.71969 12.1766 5.90702 11.8719 5.23383C11.5652 4.55614 11.218 4.05873 10.8712 3.74136C10.5269 3.42632 10.2308 3.32881 10.0017 3.32881Z" fill="#171719"/>
<path d="M7.40902 13.3709C7.57929 14.279 7.82671 15.0917 8.13142 15.7649C8.43816 16.4426 8.78535 16.94 9.13216 17.2573C9.47642 17.5724 9.77248 17.6699 10.0017 17.6699C10.2308 17.6699 10.5269 17.5724 10.8712 17.2573C11.218 16.94 11.5651 16.4426 11.8719 15.7649C12.1766 15.0917 12.424 14.279 12.5943 13.3709C12.7284 12.6557 12.8116 11.8975 12.8408 11.1243H7.16256C7.19175 11.8975 7.27493 12.6557 7.40902 13.3709Z" fill="#171719"/>
<path d="M10.0017 2.16602C10.694 2.16602 11.3105 2.46952 11.8177 2.93362C12.3223 3.39539 12.7487 4.04 13.0936 4.80198C13.4405 5.56845 13.71 6.46492 13.8924 7.43778C14.0386 8.21764 14.1276 9.03978 14.1572 9.87435H18.3119C17.9923 5.56389 14.3938 2.16602 10.0017 2.16602Z" fill="#171719"/>
<path d="M13.8924 13.5609C13.71 14.5338 13.4405 15.4302 13.0936 16.1967C12.7487 16.9587 12.3223 17.6033 11.8177 18.0651C11.3105 18.5292 10.694 18.8327 10.0017 18.8327C14.3938 18.8327 17.9923 15.4348 18.3119 11.1243H14.1572C14.1276 11.9589 14.0386 12.7811 13.8924 13.5609Z" fill="#171719"/>
</svg>
