<svg width="20" height="21" viewBox="0 0 20 21" fill="none" xmlns="http://www.w3.org/2000/svg">
<path d="M13.7657 14.2517C13.9116 14.138 14.0438 14.0057 14.3084 13.7412L17.6062 10.4434C17.6859 10.3636 17.6495 10.2263 17.5429 10.1893C17.1537 10.0543 16.6473 9.80073 16.1736 9.32705C15.6999 8.85337 15.4464 8.34699 15.3113 7.95772C15.2743 7.8512 15.137 7.81471 15.0573 7.89444L11.7595 11.1923C11.4949 11.4568 11.3627 11.5891 11.2489 11.7349C11.1147 11.9069 10.9997 12.0931 10.9058 12.29C10.8263 12.457 10.7671 12.6345 10.6488 12.9894L10.4959 13.448L10.2529 14.1772L10.025 14.8609C9.96674 15.0355 10.0122 15.2281 10.1424 15.3583C10.2726 15.4885 10.4651 15.5339 10.6398 15.4757L11.3235 15.2478L12.0527 15.0047L12.5113 14.8519L12.5113 14.8518C12.8662 14.7335 13.0437 14.6744 13.2106 14.5948C13.4076 14.501 13.5937 14.3859 13.7657 14.2517Z" fill="white"/>
<path d="M18.6388 9.4108C19.3426 8.70694 19.3426 7.56575 18.6388 6.86188C17.9349 6.15802 16.7937 6.15802 16.0898 6.86188L15.9838 6.96791C15.8815 7.07021 15.8352 7.21312 15.8607 7.35553C15.8768 7.44512 15.9066 7.57609 15.9608 7.73238C16.0693 8.04493 16.274 8.45522 16.6597 8.84092C17.0454 9.22661 17.4557 9.43139 17.7683 9.53982C17.9246 9.59404 18.0555 9.62385 18.1451 9.63993C18.2875 9.66549 18.4304 9.61913 18.5327 9.51683L18.6388 9.4108Z" fill="white"/>
<path fill-rule="evenodd" clip-rule="evenodd" d="M3.47631 3.14233C2.5 4.11864 2.5 5.68999 2.5 8.83268V12.166C2.5 15.3087 2.5 16.8801 3.47631 17.8564C4.45262 18.8327 6.02397 18.8327 9.16667 18.8327H10.8333C13.976 18.8327 15.5474 18.8327 16.5237 17.8564C17.4843 16.8957 17.4997 15.359 17.5 12.3161L15.1514 14.6647C14.9266 14.8896 14.7425 15.0739 14.5346 15.2361C14.2909 15.4261 14.0273 15.589 13.7484 15.7219C13.5104 15.8354 13.2632 15.9177 12.9615 16.0181L11.0351 16.6602C10.4113 16.8682 9.7235 16.7058 9.25852 16.2409C8.79355 15.7759 8.6312 15.0881 8.83914 14.4643L9.06705 13.7806L9.46298 12.5928L9.48124 12.5379C9.58171 12.2362 9.66399 11.989 9.77745 11.751C9.91037 11.4721 10.0733 11.2085 10.2633 10.9648C10.4255 10.7569 10.6098 10.5728 10.8347 10.3479L14.1734 7.00925L15.1 6.08272L15.206 5.9767C15.8022 5.38053 16.5836 5.08252 17.365 5.08268C17.2389 4.22389 16.9951 3.61374 16.5237 3.14233C15.5474 2.16602 13.976 2.16602 10.8333 2.16602H9.16667C6.02397 2.16602 4.45262 2.16602 3.47631 3.14233ZM6.04167 7.99935C6.04167 7.65417 6.32149 7.37435 6.66667 7.37435H12.0833C12.4285 7.37435 12.7083 7.65417 12.7083 7.99935C12.7083 8.34453 12.4285 8.62435 12.0833 8.62435H6.66667C6.32149 8.62435 6.04167 8.34453 6.04167 7.99935ZM6.04167 11.3327C6.04167 10.9875 6.32149 10.7077 6.66667 10.7077H8.75C9.09518 10.7077 9.375 10.9875 9.375 11.3327C9.375 11.6779 9.09518 11.9577 8.75 11.9577H6.66667C6.32149 11.9577 6.04167 11.6779 6.04167 11.3327ZM6.04167 14.666C6.04167 14.3208 6.32149 14.041 6.66667 14.041H7.91667C8.26184 14.041 8.54167 14.3208 8.54167 14.666C8.54167 15.0112 8.26184 15.291 7.91667 15.291H6.66667C6.32149 15.291 6.04167 15.0112 6.04167 14.666Z" fill="white"/>
</svg>
