<svg width="20" height="21" viewBox="0 0 20 21" fill="none" xmlns="http://www.w3.org/2000/svg">
<path fill-rule="evenodd" clip-rule="evenodd" d="M7.99497 3.16624C7.79203 3.33919 7.69056 3.42566 7.58219 3.4983C7.33377 3.6648 7.05478 3.78036 6.76139 3.83828C6.63339 3.86355 6.5005 3.87416 6.2347 3.89537C5.56688 3.94866 5.23297 3.97531 4.95439 4.07371C4.31006 4.30129 3.80324 4.80811 3.57566 5.45244C3.47726 5.73102 3.45062 6.06493 3.39732 6.73275C3.37611 6.99854 3.36551 7.13144 3.34024 7.25943C3.28231 7.55283 3.16675 7.83181 3.00025 8.08023C2.92762 8.1886 2.84114 8.29008 2.6682 8.49302C2.23366 9.00292 2.01639 9.25788 1.88898 9.52444C1.5943 10.141 1.5943 10.8577 1.88898 11.4743C2.01639 11.7408 2.23366 11.9958 2.6682 12.5057C2.84112 12.7086 2.92762 12.8101 3.00025 12.9185C3.16675 13.1669 3.28231 13.4459 3.34024 13.7393C3.36551 13.8673 3.37611 14.0002 3.39732 14.2659C3.45062 14.9338 3.47726 15.2677 3.57566 15.5463C3.80324 16.1906 4.31006 16.6974 4.95439 16.925C5.23297 17.0234 5.56688 17.05 6.2347 17.1033C6.5005 17.1245 6.63339 17.1351 6.76139 17.1604C7.05478 17.2183 7.33377 17.3339 7.58219 17.5004C7.69056 17.573 7.79203 17.6595 7.99497 17.8325C8.50488 18.267 8.75983 18.4843 9.02639 18.6117C9.64293 18.9064 10.3597 18.9064 10.9762 18.6117C11.2428 18.4843 11.4977 18.267 12.0076 17.8325C12.2106 17.6595 12.312 17.573 12.4204 17.5004C12.6688 17.3339 12.9478 17.2183 13.2412 17.1604C13.3692 17.1351 13.5021 17.1245 13.7679 17.1033C14.4357 17.05 14.7696 17.0234 15.0482 16.925C15.6925 16.6974 16.1994 16.1906 16.4269 15.5463C16.5253 15.2677 16.552 14.9338 16.6053 14.2659C16.6265 14.0002 16.6371 13.8673 16.6624 13.7393C16.7203 13.4459 16.8359 13.1669 17.0024 12.9185C17.075 12.8101 17.1615 12.7086 17.3344 12.5057C17.7689 11.9958 17.9862 11.7408 18.1136 11.4743C18.4083 10.8577 18.4083 10.141 18.1136 9.52444C17.9862 9.25788 17.7689 9.00292 17.3344 8.49302C17.1615 8.29008 17.075 8.1886 17.0024 8.08023C16.8359 7.83181 16.7203 7.55283 16.6624 7.25943C16.6371 7.13144 16.6265 6.99854 16.6053 6.73275C16.552 6.06493 16.5253 5.73102 16.4269 5.45244C16.1994 4.80811 15.6925 4.30129 15.0482 4.07371C14.7696 3.97531 14.4357 3.94866 13.7679 3.89537C13.5021 3.87416 13.3692 3.86355 13.2412 3.83828C12.9478 3.78036 12.6688 3.6648 12.4204 3.4983C12.312 3.42566 12.2106 3.33919 12.0076 3.16624C11.4977 2.73171 11.2428 2.51444 10.9762 2.38703C10.3597 2.09234 9.64293 2.09234 9.02639 2.38703C8.75983 2.51444 8.50487 2.73171 7.99497 3.16624ZM13.1937 7.30734C13.4586 7.5722 13.4586 8.00162 13.1937 8.26648L7.768 13.6922C7.50314 13.9571 7.07371 13.9571 6.80885 13.6922C6.54399 13.4274 6.54399 12.9979 6.80885 12.7331L12.2346 7.30734C12.4994 7.04248 12.9289 7.04248 13.1937 7.30734ZM13.1663 12.7605C13.1663 13.2599 12.7614 13.6648 12.262 13.6648C11.7626 13.6648 11.3577 13.2599 11.3577 12.7605C11.3577 12.2611 11.7626 11.8562 12.262 11.8562C12.7614 11.8562 13.1663 12.2611 13.1663 12.7605ZM7.74057 9.14335C8.23999 9.14335 8.64486 8.73848 8.64486 8.23906C8.64486 7.73963 8.23999 7.33477 7.74057 7.33477C7.24114 7.33477 6.83628 7.73963 6.83628 8.23906C6.83628 8.73848 7.24114 9.14335 7.74057 9.14335Z" fill="#ffffff"/>
</svg>