<svg width="109" height="44" viewBox="0 0 109 44" fill="none" xmlns="http://www.w3.org/2000/svg">
<g opacity="0.35">
<rect x="63.5508" y="18.811" width="20.2667" height="10.5387" rx="3.48587" fill="#171719"/>
<rect x="63.9561" y="19.2164" width="19.456" height="9.728" rx="3.08053" stroke="#171719" stroke-opacity="0.4" stroke-width="0.810667"/>
</g>
<path opacity="0.4" d="M84.6279 22.6868V25.9906C85.2803 25.7108 85.7045 25.0599 85.7045 24.3387C85.7045 23.6175 85.2803 22.9666 84.6279 22.6868Z" fill="#171719"/>
<rect x="65.1719" y="20.4324" width="17.024" height="7.296" rx="2.02667" fill="#171719"/>
<path fill-rule="evenodd" clip-rule="evenodd" d="M50.7991 21.3275C52.8153 21.3275 54.7544 22.075 56.2156 23.4155C56.3257 23.519 56.5015 23.5176 56.6099 23.4125L57.6617 22.3883C57.7166 22.335 57.7472 22.2628 57.7468 22.1876C57.7463 22.1125 57.7148 22.0406 57.6593 21.988C53.824 18.4415 47.7735 18.4415 43.9382 21.988C43.8826 22.0406 43.8511 22.1124 43.8506 22.1876C43.8501 22.2627 43.8806 22.3349 43.9355 22.3883L44.9876 23.4125C45.0959 23.5178 45.2719 23.5191 45.3819 23.4155C46.8433 22.075 48.7826 21.3275 50.7991 21.3275ZM50.7963 24.7487C51.8967 24.7486 52.9577 25.1635 53.7734 25.9126C53.8837 26.019 54.0575 26.0167 54.165 25.9074L55.2086 24.8379C55.2635 24.7818 55.294 24.7057 55.2932 24.6266C55.2924 24.5476 55.2604 24.4721 55.2043 24.4171C52.7206 22.0736 48.8742 22.0736 46.3904 24.4171C46.3343 24.4721 46.3023 24.5476 46.3016 24.6267C46.3009 24.7058 46.3315 24.7819 46.3865 24.8379L47.4298 25.9074C47.5373 26.0167 47.7111 26.019 47.8214 25.9126C48.6365 25.164 49.6967 24.7492 50.7963 24.7487ZM52.8428 27.0133C52.8444 27.0987 52.8143 27.1811 52.7598 27.2409L50.9952 29.2309C50.9435 29.2894 50.873 29.3223 50.7994 29.3223C50.7258 29.3223 50.6553 29.2894 50.6035 29.2309L48.8387 27.2409C48.7842 27.181 48.7542 27.0987 48.7558 27.0133C48.7574 26.9279 48.7905 26.847 48.8472 26.7897C49.9741 25.7246 51.6246 25.7246 52.7515 26.7897C52.8082 26.847 52.8412 26.9279 52.8428 27.0133Z" fill="#171719"/>
<path fill-rule="evenodd" clip-rule="evenodd" d="M37.7709 20.1746C37.7709 19.6614 37.3837 19.2454 36.9061 19.2454H36.0414C35.5639 19.2454 35.1767 19.6614 35.1767 20.1746V28.2277C35.1767 28.7409 35.5639 29.1569 36.0414 29.1569H36.9061C37.3837 29.1569 37.7709 28.7409 37.7709 28.2277V20.1746ZM31.7443 21.2277H32.609C33.0865 21.2277 33.4737 21.6537 33.4737 22.1792V28.2054C33.4737 28.7309 33.0865 29.1569 32.609 29.1569H31.7443C31.2667 29.1569 30.8796 28.7309 30.8796 28.2054V22.1792C30.8796 21.6537 31.2667 21.2277 31.7443 21.2277ZM28.2326 23.3752H27.3679C26.8904 23.3752 26.5032 23.8066 26.5032 24.3388V28.1933C26.5032 28.7255 26.8904 29.1569 27.3679 29.1569H28.2326C28.7102 29.1569 29.0974 28.7255 29.0974 28.1933V24.3388C29.0974 23.8066 28.7102 23.3752 28.2326 23.3752ZM23.9355 25.3575H23.0708C22.5932 25.3575 22.2061 25.7827 22.2061 26.3073V28.2071C22.2061 28.7316 22.5932 29.1569 23.0708 29.1569H23.9355C24.413 29.1569 24.8002 28.7316 24.8002 28.2071V26.3073C24.8002 25.7827 24.413 25.3575 23.9355 25.3575Z" fill="#171719"/>
</svg>
