<svg width="20" height="21" viewBox="0 0 20 21" fill="none" xmlns="http://www.w3.org/2000/svg">
<path fill-rule="evenodd" clip-rule="evenodd" d="M2.88836 3.3864C1.66797 4.60679 1.66797 6.57098 1.66797 10.4993C1.66797 14.4277 1.66797 16.3919 2.88836 17.6123C4.10875 18.8327 6.07293 18.8327 10.0013 18.8327C13.9297 18.8327 15.8939 18.8327 17.1142 17.6123C18.3346 16.3919 18.3346 14.4277 18.3346 10.4993C18.3346 6.57098 18.3346 4.60679 17.1142 3.3864C15.8939 2.16602 13.9297 2.16602 10.0013 2.16602C6.07293 2.16602 4.10875 2.16602 2.88836 3.3864ZM8.78722 6.76372C9.02528 6.51376 9.01563 6.11815 8.76567 5.8801C8.51571 5.64204 8.1201 5.65169 7.88205 5.90165L5.95368 7.92643L5.45389 7.40165C5.21584 7.15169 4.82023 7.14204 4.57027 7.3801C4.32031 7.61815 4.31066 8.01376 4.54872 8.26372L5.5011 9.26372C5.61906 9.38758 5.78264 9.45768 5.95368 9.45768C6.12473 9.45768 6.28831 9.38758 6.40627 9.26372L8.78722 6.76372ZM10.8346 7.37435C10.4895 7.37435 10.2096 7.65417 10.2096 7.99935C10.2096 8.34453 10.4895 8.62435 10.8346 8.62435H15.0013C15.3465 8.62435 15.6263 8.34453 15.6263 7.99935C15.6263 7.65417 15.3465 7.37435 15.0013 7.37435H10.8346ZM8.78722 12.5971C9.02528 12.3471 9.01563 11.9515 8.76567 11.7134C8.51571 11.4754 8.1201 11.485 7.88205 11.735L5.95368 13.7598L5.45389 13.235C5.21584 12.985 4.82023 12.9754 4.57027 13.2134C4.32031 13.4515 4.31066 13.8471 4.54872 14.0971L5.5011 15.0971C5.61906 15.2209 5.78264 15.291 5.95368 15.291C6.12473 15.291 6.28831 15.2209 6.40627 15.0971L8.78722 12.5971ZM10.8346 13.2077C10.4895 13.2077 10.2096 13.4875 10.2096 13.8327C10.2096 14.1779 10.4895 14.4577 10.8346 14.4577H15.0013C15.3465 14.4577 15.6263 14.1779 15.6263 13.8327C15.6263 13.4875 15.3465 13.2077 15.0013 13.2077H10.8346Z" fill="white"/>
</svg>
