<svg width="16" height="16" viewBox="0 0 16 16" fill="none" xmlns="http://www.w3.org/2000/svg">
<path d="M7.99812 5.91687C6.85125 5.91687 5.91531 6.85281 5.91531 7.99968C5.91531 9.14656 6.85125 10.0825 7.99812 10.0825C9.145 10.0825 10.0809 9.14656 10.0809 7.99968C10.0809 6.85281 9.145 5.91687 7.99812 5.91687ZM14.245 7.99968C14.245 7.13718 14.2528 6.2825 14.2044 5.42156C14.1559 4.42156 13.9278 3.53406 13.1966 2.80281C12.4637 2.07 11.5778 1.84343 10.5778 1.795C9.71531 1.74656 8.86062 1.75437 7.99968 1.75437C7.13718 1.75437 6.2825 1.74656 5.42156 1.795C4.42156 1.84343 3.53406 2.07156 2.80281 2.80281C2.07 3.53562 1.84343 4.42156 1.795 5.42156C1.74656 6.28406 1.75437 7.13875 1.75437 7.99968C1.75437 8.86062 1.74656 9.71687 1.795 10.5778C1.84343 11.5778 2.07156 12.4653 2.80281 13.1966C3.53562 13.9294 4.42156 14.1559 5.42156 14.2044C6.28406 14.2528 7.13875 14.245 7.99968 14.245C8.86218 14.245 9.71687 14.2528 10.5778 14.2044C11.5778 14.1559 12.4653 13.9278 13.1966 13.1966C13.9294 12.4637 14.1559 11.5778 14.2044 10.5778C14.2544 9.71687 14.245 8.86218 14.245 7.99968ZM7.99812 11.2044C6.22468 11.2044 4.79343 9.77312 4.79343 7.99968C4.79343 6.22625 6.22468 4.795 7.99812 4.795C9.77156 4.795 11.2028 6.22625 11.2028 7.99968C11.2028 9.77312 9.77156 11.2044 7.99812 11.2044ZM11.3341 5.41218C10.92 5.41218 10.5856 5.07781 10.5856 4.66375C10.5856 4.24968 10.92 3.91531 11.3341 3.91531C11.7481 3.91531 12.0825 4.24968 12.0825 4.66375C12.0826 4.76207 12.0633 4.85945 12.0258 4.95031C11.9882 5.04117 11.9331 5.12372 11.8636 5.19325C11.794 5.26277 11.7115 5.31789 11.6206 5.35546C11.5298 5.39303 11.4324 5.41231 11.3341 5.41218Z" fill="#171719"/>
</svg>
