<svg width="16" height="16" viewBox="0 0 16 16" fill="none" xmlns="http://www.w3.org/2000/svg">
<g clip-path="url(#clip0_2411_33633)">
<path d="M9.57207 2.7178L10.19 2.09988C11.2138 1.07608 12.8737 1.07608 13.8975 2.09988C14.9213 3.12369 14.9213 4.7836 13.8975 5.8074L13.2796 6.42532M9.57207 2.7178C9.57207 2.7178 9.64931 4.03088 10.8079 5.18948C11.9665 6.34808 13.2796 6.42532 13.2796 6.42532M9.57207 2.7178L3.89125 8.39863C3.50647 8.7834 3.31408 8.97579 3.14863 9.18792C2.95345 9.43815 2.78612 9.7089 2.64959 9.99538C2.53385 10.2382 2.44781 10.4963 2.27574 11.0126L1.54657 13.2001M13.2796 6.42532L7.59876 12.1061C7.21399 12.4909 7.0216 12.6833 6.80947 12.8488C6.55924 13.0439 6.28849 13.2113 6.00201 13.3478C5.75916 13.4635 5.50105 13.5496 4.98482 13.7217L2.79731 14.4508M2.79731 14.4508L2.26259 14.6291C2.00855 14.7137 1.72847 14.6476 1.53912 14.4583C1.34977 14.2689 1.28365 13.9888 1.36833 13.7348L1.54657 13.2001M2.79731 14.4508L1.54657 13.2001" stroke="#171719"/>
</g>
<defs>
<clipPath id="clip0_2411_33633">
<rect width="16" height="16" fill="white"/>
</clipPath>
</defs>
</svg>
