<svg width="20" height="21" viewBox="0 0 20 21" fill="none" xmlns="http://www.w3.org/2000/svg">
<path fill-rule="evenodd" clip-rule="evenodd" d="M2.88836 3.3864C1.66797 4.60679 1.66797 6.57098 1.66797 10.4993C1.66797 14.4277 1.66797 16.3919 2.88836 17.6123C4.10875 18.8327 6.07293 18.8327 10.0013 18.8327C13.9297 18.8327 15.8939 18.8327 17.1142 17.6123C18.3346 16.3919 18.3346 14.4277 18.3346 10.4993C18.3346 6.57098 18.3346 4.60679 17.1142 3.3864C15.8939 2.16602 13.9297 2.16602 10.0013 2.16602C6.07293 2.16602 4.10875 2.16602 2.88836 3.3864ZM13.3346 8.83268C14.2551 8.83268 15.0013 8.08649 15.0013 7.16602C15.0013 6.24554 14.2551 5.49935 13.3346 5.49935C12.4142 5.49935 11.668 6.24554 11.668 7.16602C11.668 8.08649 12.4142 8.83268 13.3346 8.83268ZM5.26873 11.4191C5.78881 10.9361 6.60123 10.9632 7.08795 11.4799L9.29418 13.8218C9.9604 14.529 11.051 14.6243 11.8298 14.0433C12.3407 13.6621 13.0521 13.7055 13.5131 14.1458L15.4029 15.9513C15.6525 16.1897 16.0481 16.1807 16.2866 15.9311C16.525 15.6815 16.516 15.2859 16.2664 15.0474L14.3765 13.242C13.4745 12.3802 12.0822 12.2954 11.0823 13.0414C10.8126 13.2426 10.4348 13.2096 10.204 12.9647L7.9978 10.6227C7.04006 9.60609 5.44144 9.55274 4.41805 10.5033L3.74263 11.1306C3.48972 11.3655 3.47512 11.761 3.71003 12.0139C3.94494 12.2668 4.3404 12.2814 4.59331 12.0465L5.26873 11.4191Z" fill="white"/>
</svg>
