<svg width="23" height="22" viewBox="0 0 23 22" fill="none" xmlns="http://www.w3.org/2000/svg">
<path d="M11.1344 7.3555C9.12738 7.3555 7.48948 8.99339 7.48948 11.0004C7.48948 13.0075 9.12738 14.6453 11.1344 14.6453C13.1414 14.6453 14.7793 13.0075 14.7793 11.0004C14.7793 8.99339 13.1414 7.3555 11.1344 7.3555ZM22.0664 11.0004C22.0664 9.49105 22.0801 7.99534 21.9953 6.4887C21.9106 4.7387 21.5114 3.18558 20.2317 1.90589C18.9493 0.623469 17.3989 0.226985 15.6489 0.14222C14.1395 0.0574539 12.6438 0.0711258 11.1371 0.0711258C9.62777 0.0711258 8.13206 0.0574539 6.62542 0.14222C4.87542 0.226985 3.3223 0.626204 2.04261 1.90589C0.760188 3.18831 0.363704 4.7387 0.278938 6.4887C0.194173 7.99808 0.207845 9.49378 0.207845 11.0004C0.207845 12.5071 0.194173 14.0055 0.278938 15.5121C0.363704 17.2621 0.762923 18.8153 2.04261 20.095C3.32503 21.3774 4.87542 21.7739 6.62542 21.8586C8.1348 21.9434 9.6305 21.9297 11.1371 21.9297C12.6465 21.9297 14.1422 21.9434 15.6489 21.8586C17.3989 21.7739 18.952 21.3746 20.2317 20.095C21.5141 18.8125 21.9106 17.2621 21.9953 15.5121C22.0828 14.0055 22.0664 12.5098 22.0664 11.0004ZM11.1344 16.6086C8.03089 16.6086 5.5262 14.1039 5.5262 11.0004C5.5262 7.89691 8.03089 5.39222 11.1344 5.39222C14.2379 5.39222 16.7426 7.89691 16.7426 11.0004C16.7426 14.1039 14.2379 16.6086 11.1344 16.6086ZM16.9723 6.4723C16.2477 6.4723 15.6625 5.88714 15.6625 5.16253C15.6625 4.43792 16.2477 3.85277 16.9723 3.85277C17.6969 3.85277 18.2821 4.43792 18.2821 5.16253C18.2823 5.33459 18.2485 5.50501 18.1828 5.66401C18.1171 5.82302 18.0206 5.96749 17.8989 6.08916C17.7773 6.21082 17.6328 6.30729 17.4738 6.37304C17.3148 6.43878 17.1444 6.47251 16.9723 6.4723Z" fill="#171719"/>
</svg>
