<svg width="32" height="32" viewBox="0 0 32 32" fill="none" xmlns="http://www.w3.org/2000/svg">
<rect width="32" height="32" rx="12" fill="#E0F97B" fill-opacity="0.88"/>
<path d="M22 22.5C22 20.8431 23.3431 19.5 25 19.5C26.6568 19.5 28 20.8431 28 22.5C28 24.1569 26.6568 25.5 25 25.5C23.3431 25.5 22 24.1569 22 22.5Z" stroke="#171719" stroke-width="1.5"/>
<path d="M12 17.5C12 19.1569 13.3431 20.5 15 20.5C16.6568 20.5 18 19.1569 18 17.5C18 15.8431 16.6568 14.5 15 14.5C13.3431 14.5 12 15.8431 12 17.5Z" stroke="#171719" stroke-width="1.5"/>
<path d="M24.959 17L24.959 10" stroke="#1C274C" stroke-width="1.5" stroke-linecap="round"/>
<path d="M14.959 23L14.959 30" stroke="#1C274C" stroke-width="1.5" stroke-linecap="round"/>
<path d="M24.959 30L24.959 28" stroke="#1C274C" stroke-width="1.5" stroke-linecap="round"/>
<path d="M14.959 10L14.959 12" stroke="#1C274C" stroke-width="1.5" stroke-linecap="round"/>
</svg>
