<svg width="16" height="16" viewBox="0 0 16 16" fill="none" xmlns="http://www.w3.org/2000/svg">
<path d="M12.8825 3.708C12.7813 3.65563 12.6827 3.59823 12.5872 3.536C12.3096 3.35248 12.0551 3.13626 11.8292 2.892C11.2632 2.24467 11.0518 1.588 10.9745 1.12867H10.9772C10.9125 0.746667 10.9392 0.5 10.9438 0.5H8.36717V10.462C8.36717 10.5953 8.36717 10.728 8.36184 10.8587C8.36184 10.8747 8.35984 10.8893 8.35917 10.9073C8.35917 10.914 8.35917 10.922 8.35717 10.9293V10.9353C8.33011 11.2927 8.21564 11.6379 8.02383 11.9406C7.83202 12.2433 7.56874 12.4943 7.25717 12.6713C6.93212 12.8563 6.56447 12.9532 6.19051 12.9527C4.99051 12.9527 4.01717 11.974 4.01717 10.7653C4.01717 9.556 4.99051 8.57733 6.19051 8.57733C6.41784 8.57733 6.64384 8.61333 6.85984 8.684L6.86317 6.06C6.20718 5.97537 5.54077 6.02764 4.906 6.21353C4.27123 6.39942 3.68189 6.71488 3.17517 7.14C2.73108 7.52569 2.3577 7.98593 2.07184 8.5C1.96317 8.68733 1.55251 9.44133 1.50317 10.664C1.47184 11.3573 1.68051 12.0773 1.77984 12.374V12.3807C1.84184 12.5553 2.08451 13.1527 2.47917 13.656C2.79744 14.06 3.17347 14.4149 3.59517 14.7093V14.7027L3.60117 14.7093C4.84784 15.556 6.23117 15.5007 6.23117 15.5007C6.47051 15.4907 7.27251 15.5007 8.18317 15.0693C9.19317 14.5907 9.76784 13.878 9.76784 13.878C10.1352 13.4521 10.4274 12.9667 10.6318 12.4427C10.8652 11.8293 10.9425 11.0947 10.9425 10.8013V5.51533C10.9738 5.534 11.3905 5.80933 11.3905 5.80933C11.3905 5.80933 11.9905 6.194 12.9258 6.444C13.5965 6.622 14.5012 6.66 14.5012 6.66V4.102C14.1845 4.13667 13.5412 4.03667 12.8818 3.70867" fill="#171719"/>
</svg>
