<svg width="16" height="16" viewBox="0 0 16 16" fill="none" xmlns="http://www.w3.org/2000/svg">
<path d="M9.33201 9.66699C9.33201 8.56242 10.2274 7.66699 11.332 7.66699C12.4366 7.66699 13.332 8.56242 13.332 9.66699C13.332 10.7716 12.4366 11.667 11.332 11.667C10.2274 11.667 9.33201 10.7716 9.33201 9.66699Z" stroke="#171719" stroke-width="1.5"/>
<path d="M2.66795 6.33301C2.66795 7.43758 3.56338 8.33301 4.66795 8.33301C5.77252 8.33301 6.66795 7.43758 6.66795 6.33301C6.66795 5.22844 5.77252 4.33301 4.66795 4.33301C3.56338 4.33301 2.66795 5.22844 2.66795 6.33301Z" stroke="#171719" stroke-width="1.5"/>
<path d="M11.3047 6L11.3047 1.33333" stroke="#1C274C" stroke-width="1.5" stroke-linecap="round"/>
<path d="M4.64062 10L4.64063 14.6667" stroke="#1C274C" stroke-width="1.5" stroke-linecap="round"/>
<path d="M11.3047 14.667L11.3047 13.3337" stroke="#1C274C" stroke-width="1.5" stroke-linecap="round"/>
<path d="M4.64062 1.33301L4.64063 2.66634" stroke="#1C274C" stroke-width="1.5" stroke-linecap="round"/>
</svg>
