<svg width="19" height="21" viewBox="0 0 19 21" fill="none" xmlns="http://www.w3.org/2000/svg">
<path d="M15.8918 4.44144C15.7516 4.36894 15.6151 4.28946 15.4829 4.20331C15.0986 3.94923 14.7463 3.64988 14.4335 3.3117C13.6498 2.41547 13.3572 1.50633 13.2502 0.870383H13.2539C13.1643 0.341508 13.2013 0 13.2077 0H9.64035V13.7923C9.64035 13.9769 9.64035 14.1606 9.63296 14.3415C9.63296 14.3636 9.63019 14.3839 9.62927 14.4089C9.62927 14.4181 9.62927 14.4292 9.6265 14.4393V14.4476C9.58904 14.9424 9.43055 15.4203 9.16499 15.8394C8.89943 16.2585 8.53493 16.6059 8.10356 16.8511C7.65354 17.1071 7.14453 17.2414 6.62677 17.2406C4.96538 17.2406 3.61781 15.8856 3.61781 14.2123C3.61781 12.5379 4.96538 11.183 6.62677 11.183C6.94151 11.183 7.25441 11.2328 7.55346 11.3307L7.55807 7.69777C6.64986 7.58059 5.72722 7.65297 4.84838 7.91033C3.96955 8.16769 3.15361 8.60444 2.45207 9.19302C1.83723 9.727 1.32029 10.3642 0.924519 11.0759C0.774071 11.3353 0.205507 12.3792 0.137205 14.072C0.0938246 15.0319 0.382722 16.0287 0.520248 16.4394V16.4487C0.606086 16.6905 0.942056 17.5175 1.48847 18.2144C1.9291 18.7737 2.44972 19.2651 3.03356 19.6727V19.6635L3.04187 19.6727C4.76786 20.8449 6.68308 20.7683 6.68308 20.7683C7.01443 20.7544 8.12479 20.7683 9.3856 20.1711C10.7839 19.5084 11.5796 18.5217 11.5796 18.5217C12.0882 17.932 12.4927 17.26 12.7758 16.5345C13.0988 15.6854 13.2059 14.6682 13.2059 14.2621V6.94368C13.2493 6.96952 13.8261 7.35072 13.8261 7.35072C13.8261 7.35072 14.6568 7.88329 15.9518 8.22941C16.8803 8.47585 18.1328 8.52846 18.1328 8.52846V4.98693C17.6944 5.03493 16.8037 4.89648 15.8909 4.44237" fill="#171719"/>
</svg>
