<svg width="103" height="103" viewBox="0 0 103 103" fill="none" xmlns="http://www.w3.org/2000/svg">
<path d="M46.8935 10.1292C48.4102 11.0564 48.8881 13.0376 47.9609 14.5543C47.2881 15.6549 47.4567 17.0732 48.3688 17.9853L48.7889 18.4054C51.3152 20.9317 52.2468 24.643 51.213 28.0629C50.6987 29.7646 48.9023 30.727 47.2006 30.2127C45.499 29.6983 44.5365 27.9019 45.0509 26.2003C45.398 25.0519 45.0852 23.8057 44.2369 22.9574L43.8168 22.5373C40.8019 19.5223 40.2445 14.8345 42.4684 11.1966C43.3956 9.6799 45.3768 9.20202 46.8935 10.1292Z" fill="#AB9AFF"/>
<path d="M85.7258 30.2425C85.1318 30.4714 84.6052 30.998 83.5521 32.0511C82.4989 33.1043 81.9724 33.6308 81.7435 34.2249C81.4756 34.92 81.4756 35.6899 81.7435 36.3851C81.9724 36.9791 82.4989 37.5057 83.5521 38.5588C84.6052 39.6119 85.1318 40.1385 85.7258 40.3674C86.421 40.6352 87.1908 40.6352 87.886 40.3674C88.48 40.1385 89.0066 39.6119 90.0597 38.5588C91.1129 37.5057 91.6394 36.9791 91.8683 36.3851C92.1362 35.6899 92.1362 34.92 91.8683 34.2249C91.6394 33.6308 91.1129 33.1043 90.0597 32.0511C89.0066 30.998 88.48 30.4714 87.886 30.2425C87.1908 29.9747 86.421 29.9747 85.7258 30.2425Z" fill="#AB9AFF"/>
<path d="M91.8777 53.9017C90.3253 53.2229 88.5201 53.508 87.2524 54.6321C83.7794 57.7118 78.7253 58.2237 74.7053 55.9027L73.7918 55.3753C72.2523 54.4865 71.7248 52.518 72.6137 50.9785C73.5025 49.4389 75.4711 48.9115 77.0106 49.8003L77.924 50.3277C79.5443 51.2632 81.5815 51.0569 82.9813 49.8156C86.1264 47.0267 90.6053 46.3194 94.4567 48.0033L95.7076 48.5503C97.3364 49.2625 98.0795 51.1602 97.3673 52.7889C96.6551 54.4177 94.7574 55.1608 93.1286 54.4486L91.8777 53.9017Z" fill="#AB9AFF"/>
<path opacity="0.7" d="M58.2012 18.8692C59.0641 18.0063 59.4955 17.5749 59.9944 17.4167C60.4163 17.283 60.8693 17.283 61.2912 17.4167C61.7901 17.5749 62.2215 18.0063 63.0844 18.8692C63.9472 19.732 64.3787 20.1635 64.5368 20.6623C64.6706 21.0843 64.6706 21.5373 64.5368 21.9592C64.3787 22.4581 63.9473 22.8895 63.0844 23.7523C62.2215 24.6152 61.7901 25.0467 61.2912 25.2048C60.8693 25.3386 60.4163 25.3386 59.9944 25.2048C59.4955 25.0467 59.0641 24.6152 58.2012 23.7524C57.3383 22.8895 56.9069 22.4581 56.7488 21.9592C56.615 21.5373 56.615 21.0843 56.7488 20.6623C56.9069 20.1635 57.3383 19.732 58.2012 18.8692Z" fill="#5733FF"/>
<path opacity="0.7" d="M81.7875 65.7191C82.6865 64.8202 84.144 64.8202 85.043 65.7191C85.9419 66.6181 85.9419 68.0756 85.043 68.9746C84.144 69.8736 82.6865 69.8736 81.7875 68.9746C80.8885 68.0756 80.8885 66.6181 81.7875 65.7191Z" fill="#5733FF"/>
<g opacity="0.9">
<path d="M29.725 16.9125C30.624 16.0135 32.0815 16.0135 32.9805 16.9125C33.8794 17.8115 33.8794 19.269 32.9805 20.168C32.0815 21.0669 30.624 21.0669 29.725 20.168C28.826 19.269 28.826 17.8115 29.725 16.9125Z" fill="#E0F97B"/>
<path d="M75.9123 20.2636C77.6554 20.6122 78.7859 22.308 78.4373 24.0511L77.8193 27.1408C76.9689 31.3931 73.9052 34.8636 69.7912 36.2349C67.8689 36.8757 66.4373 38.4974 66.0399 40.4844L65.422 43.5741C65.0733 45.3172 63.3776 46.4477 61.6345 46.0991C59.8913 45.7505 58.7608 44.0547 59.1095 42.3116L59.7274 39.2219C60.5779 34.9696 63.6416 31.4991 67.7555 30.1278C69.6779 29.487 71.1095 27.8653 71.5068 25.8783L72.1248 22.7886C72.4734 21.0455 74.1691 19.915 75.9123 20.2636Z" fill="#E0F97B"/>
</g>
<path d="M75.1039 41.807C76.0029 40.9081 77.4604 40.9081 78.3594 41.807C79.2583 42.706 79.2583 44.1635 78.3594 45.0625C77.4604 45.9615 76.0029 45.9615 75.1039 45.0625C74.2049 44.1635 74.2049 42.706 75.1039 41.807Z" fill="#CCED49"/>
<path d="M17.2187 67.6436L24.4695 45.8914C27.757 36.0289 29.4007 31.0977 33.2901 30.1796C37.1794 29.2614 40.8549 32.9369 48.206 40.288L62.7075 54.7895C70.0585 62.1405 73.734 65.816 72.8159 69.7054C71.8977 73.5947 66.9665 75.2385 57.104 78.5259L35.3518 85.7767L35.3517 85.7767C23.4835 89.7328 17.5494 91.7108 14.417 88.5784C11.2846 85.446 13.2627 79.5119 17.2187 67.6436Z" fill="#A18EFA"/>
<path d="M37.7684 32.2051L37.9856 31.1535C36.2985 30.1636 34.811 29.8207 33.2908 30.1796C32.671 30.3259 32.1081 30.5742 31.5866 30.9281L34.5754 31.5456C32.5217 31.1213 31.8239 30.9769 31.5866 30.9281C31.5366 30.962 31.4867 30.9971 31.4375 31.033L31.4147 31.1455C31.3838 31.2997 31.339 31.5249 31.2826 31.8146C31.1699 32.3939 31.0106 33.2317 30.8225 34.2752C30.4466 36.3611 29.9544 39.276 29.4884 42.5973C28.5651 49.1773 27.71 57.5846 28.1505 64.3029C28.4171 68.3682 29.2628 73.4111 30.0176 77.3516C30.3986 79.3404 30.7633 81.0833 31.0329 82.3299C31.1678 82.9535 31.2791 83.454 31.357 83.8L31.4477 84.1996L31.4721 84.3055L31.4804 84.3413C31.4804 84.3413 31.4812 84.3448 34.6162 83.6153L31.4804 84.3413L32.0682 86.8677C33.1092 86.5245 34.203 86.1599 35.3525 85.7767L38.2028 84.8266L37.7445 82.8569L37.7226 82.7619L37.6372 82.3855C37.5629 82.0555 37.4555 81.573 37.3249 80.969C37.0634 79.7601 36.7095 78.0684 36.3402 76.1405C35.5945 72.2478 34.8134 67.5293 34.5742 63.8817C34.1791 57.857 34.9509 49.9951 35.8634 43.4918C36.3153 40.2713 36.7932 37.441 37.158 35.417C37.3402 34.4057 37.4939 33.5974 37.6016 33.0444C37.6554 32.7679 37.6976 32.5554 37.7262 32.4133L37.7584 32.2539L37.7663 32.2154L37.7684 32.2051Z" fill="#E7F9A1"/>
<path d="M55.9615 78.9071L49.8543 80.9428L49.4578 79.7497L52.5122 78.7345C49.4578 79.7497 49.4578 79.7497 49.4578 79.7497L49.4538 79.7378L49.4453 79.7118L49.4147 79.6184C49.3887 79.5382 49.3514 79.4227 49.3045 79.2749C49.2107 78.9795 49.0784 78.5548 48.9203 78.0267C48.6046 76.9721 48.1839 75.4969 47.7625 73.8096C46.9381 70.5085 46.0397 66.121 46.0397 62.4654C46.0397 58.8097 46.9381 54.4223 47.7625 51.1212C48.1839 49.4338 48.6046 47.9587 48.9203 46.9041C49.0784 46.376 49.2107 45.9513 49.3045 45.6559C49.3514 45.5081 49.3887 45.3925 49.4147 45.3124L49.4453 45.219L49.4538 45.1929L49.4564 45.1852C49.4564 45.1852 49.4578 45.181 52.5122 46.1962L49.4578 45.181L50.3663 42.4475L55.4601 47.5413C55.4538 47.5611 55.4472 47.5817 55.4404 47.6032C55.3562 47.8685 55.2344 48.2592 55.0874 48.7502C54.793 49.7336 54.4002 51.1109 54.0082 52.6809C53.2056 55.8946 52.4772 59.6417 52.4772 62.4654C52.4772 65.289 53.2056 69.0362 54.0082 72.2498C54.4002 73.8198 54.793 75.1971 55.0874 76.1806C55.2344 76.6715 55.3562 77.0623 55.4404 77.3276C55.4825 77.4601 55.5151 77.5612 55.5367 77.6276L55.5606 77.7007L55.5659 77.717L55.9615 78.9071Z" fill="#E7F9A1"/>
</svg>
