<svg width="48" height="48" viewBox="0 0 48 48" fill="none" xmlns="http://www.w3.org/2000/svg">
<rect width="48" height="48" rx="24" fill="url(#paint0_linear_1873_6828)"/>
<path d="M23.285 26.8395V33.317C23.285 33.9238 23.285 34.4406 23.3236 34.8108C23.3436 34.9966 23.3794 35.2158 23.4667 35.4118C23.525 35.5527 23.6153 35.6776 23.7301 35.7765C23.8449 35.8753 23.9811 35.9454 24.1276 35.9809C24.2752 36.011 24.4278 36.0055 24.573 35.9646C24.7181 35.9237 24.8518 35.8487 24.963 35.7457C25.1125 35.6045 25.2399 35.441 25.3407 35.2608C25.5295 34.9414 25.7427 34.4725 25.9944 33.9223L26.0145 33.8802L29.9199 25.3152L29.9456 25.2615C30.3476 24.3803 30.6838 23.6443 30.8583 23.0448C31.0385 22.4205 31.0986 21.7658 30.7224 21.1663C30.3462 20.5682 29.7339 20.349 29.1001 20.2531C28.4907 20.1617 27.6911 20.1617 26.734 20.1617H24.7155V13.6842C24.7155 13.0774 24.7155 12.5606 24.6769 12.1904C24.6597 11.9838 24.6115 11.7812 24.5338 11.5894C24.4755 11.4485 24.3852 11.3236 24.2704 11.2247C24.1556 11.1259 24.0194 11.0558 23.8729 11.0203C23.7253 10.989 23.5724 10.9939 23.427 11.0349C23.2817 11.0758 23.1481 11.1514 23.0375 11.2555C22.888 11.3967 22.7606 11.5602 22.6598 11.7404C22.471 12.0598 22.2578 12.5287 22.0061 13.0789L21.986 13.1209L18.0806 21.686L18.0549 21.7397C17.6529 22.6209 17.3167 23.3569 17.1422 23.9564C16.962 24.5807 16.9004 25.2354 17.2781 25.8349C17.6543 26.433 18.2666 26.6522 18.9004 26.7481C19.5098 26.8395 20.3094 26.8395 21.2665 26.8395H23.285Z" fill="#E0F97B"/>
<defs>
<linearGradient id="paint0_linear_1873_6828" x1="24" y1="0" x2="24" y2="48" gradientUnits="userSpaceOnUse">
<stop stop-color="#8065FF"/>
<stop offset="1" stop-color="#4317B4"/>
</linearGradient>
</defs>
</svg>
