<svg width="280" height="80" viewBox="0 0 280 80" fill="none" xmlns="http://www.w3.org/2000/svg">
<path d="M243.607 62.9166C243.607 63.6717 243.453 64.4195 243.153 65.1171C242.853 65.8147 242.413 66.4484 241.859 66.9821C241.305 67.5158 240.647 67.939 239.923 68.2274C239.199 68.5159 238.423 68.6639 237.64 68.6631H42.3602C40.7775 68.6647 39.2588 68.0602 38.1384 66.9826C37.0179 65.9049 36.3873 64.4424 36.3852 62.9166V17.0895C36.3873 15.5629 37.0176 14.0996 38.1379 13.0208C39.2582 11.9419 40.7767 11.3358 42.3602 11.3354H237.638C238.422 11.3354 239.198 11.4842 239.922 11.7734C240.646 12.0626 241.304 12.4865 241.858 13.0208C242.412 13.5551 242.852 14.1895 243.152 14.8876C243.451 15.5857 243.606 16.3339 243.605 17.0895L243.607 62.9166Z" fill="white"/>
<path d="M237.64 70H42.3602C40.4104 69.9996 38.5405 69.2536 37.1606 67.9256C35.7807 66.5976 35.0037 64.7962 35 62.9166V17.091C35.0029 15.2104 35.7794 13.4077 37.1592 12.0784C38.539 10.749 40.4095 10.0016 42.3602 10H237.638C239.589 10.0024 241.459 10.7501 242.838 12.0792C244.218 13.4084 244.995 15.2106 244.998 17.091V62.9166C245.002 66.8236 241.694 70 237.64 70Z" fill="#AB9AFF"/>
<path d="M243.607 62.9166C243.607 63.6717 243.453 64.4195 243.153 65.1171C242.853 65.8147 242.413 66.4484 241.859 66.9821C241.305 67.5158 240.647 67.939 239.923 68.2274C239.199 68.5159 238.423 68.6639 237.64 68.6631H42.3602C40.7775 68.6647 39.2588 68.0602 38.1384 66.9826C37.0179 65.9049 36.3873 64.4424 36.3852 62.9166V17.0895C36.3873 15.5629 37.0176 14.0996 38.1379 13.0208C39.2582 11.9419 40.7767 11.3358 42.3602 11.3354H237.638C238.422 11.3354 239.198 11.4842 239.922 11.7734C240.646 12.0626 241.304 12.4865 241.858 13.0208C242.412 13.5551 242.852 14.1895 243.152 14.8876C243.451 15.5857 243.606 16.3339 243.605 17.0895L243.607 62.9166Z" fill="#171719"/>
<path d="M81.8911 39.6842C81.846 34.8483 85.9985 32.4957 86.1883 32.3862C83.8366 29.0807 80.1915 28.6291 78.9106 28.5931C75.8492 28.2825 72.8796 30.3591 71.3201 30.3591C69.7294 30.3591 67.3279 28.6231 64.7396 28.6741C61.4089 28.7236 58.293 30.5827 56.5841 33.4695C53.0573 39.3556 55.6876 48.0055 59.0666 52.7633C60.7568 55.0949 62.7319 57.6951 65.3171 57.6036C67.8462 57.5046 68.7909 56.0507 71.843 56.0507C74.8671 56.0507 75.7543 57.6036 78.3908 57.5451C81.1052 57.5046 82.8141 55.2044 84.4452 52.8533C86.3985 50.1841 87.1829 47.5523 87.214 47.4173C87.1518 47.3963 81.944 45.4788 81.8911 39.6842ZM76.9107 25.4633C78.271 23.8233 79.2017 21.5922 78.9433 19.3281C76.9745 19.4121 74.5123 20.6409 73.0944 22.2449C71.8399 23.6583 70.7193 25.9749 71.0088 28.1535C73.2204 28.3125 75.4912 27.0777 76.9107 25.4633Z" fill="white"/>
<path d="M237.64 10H133.042L174.011 70H237.64C239.59 69.9984 241.46 69.2514 242.84 67.9227C244.219 66.594 244.996 64.7921 245 62.9121V17.091C244.997 15.2105 244.22 13.4081 242.84 12.0788C241.461 10.7496 239.59 10.002 237.64 10Z" fill="#AB9AFF" fill-opacity="0.14"/>
<path d="M118.524 57.269H114.989L113.053 51.4039H106.323L104.479 57.269H101.038L107.707 37.3015H111.825L118.524 57.269ZM112.47 48.9432L110.719 43.7293C110.534 43.1966 110.185 41.9423 109.674 39.9677H109.612C109.407 40.817 109.078 42.0713 108.628 43.7293L106.907 48.9432H112.47ZM135.641 49.893C135.641 52.3416 134.952 54.2772 133.571 55.6981C132.336 56.9629 130.799 57.5946 128.967 57.5946C126.989 57.5946 125.567 56.9149 124.703 55.5525V63.1071H121.385V47.6033C121.385 46.0654 121.343 44.4885 121.262 42.871H124.18L124.365 45.1532H124.427C125.534 43.4337 127.213 42.574 129.467 42.574C131.229 42.574 132.7 43.2446 133.876 44.5875C135.051 45.9334 135.641 47.7009 135.641 49.893ZM132.261 50.01C132.261 48.6086 131.934 47.4533 131.277 46.5425C130.56 45.5958 129.596 45.1217 128.388 45.1217C127.57 45.1217 126.826 45.3857 126.161 45.9064C125.495 46.4315 125.059 47.1172 124.855 47.9664C124.764 48.284 124.713 48.6109 124.701 48.9402V51.3424C124.701 52.3882 125.034 53.2719 125.701 53.9951C126.367 54.7153 127.232 55.0769 128.297 55.0769C129.546 55.0769 130.519 54.6103 131.215 53.6845C131.912 52.7558 132.261 51.5314 132.261 50.01ZM152.819 49.893C152.819 52.3416 152.13 54.2772 150.749 55.6981C149.512 56.9629 147.977 57.5946 146.144 57.5946C144.166 57.5946 142.743 56.9149 141.879 55.5525V63.1071H138.561V47.6033C138.561 46.0654 138.519 44.4885 138.438 42.871H141.356L141.542 45.1532H141.604C142.709 43.4337 144.388 42.574 146.643 42.574C148.404 42.574 149.875 43.2446 151.054 44.5875C152.228 45.9334 152.819 47.7009 152.819 49.893ZM149.437 50.01C149.437 48.6086 149.109 47.4533 148.452 46.5425C147.735 45.5958 146.774 45.1217 145.566 45.1217C144.748 45.1217 144.004 45.3857 143.336 45.9064C142.67 46.4315 142.236 47.1172 142.032 47.9664C141.931 48.3626 141.876 48.6851 141.876 48.9402V51.3424C141.876 52.3882 142.211 53.2719 142.874 53.9951C143.54 54.7138 144.405 55.0769 145.473 55.0769C146.724 55.0769 147.697 54.6103 148.391 53.6845C149.089 52.7558 149.437 51.5314 149.437 50.01ZM172.025 51.668C172.025 53.3679 171.409 54.7498 170.184 55.8166C168.836 56.9809 166.954 57.5646 164.542 57.5646C162.313 57.5646 160.527 57.1505 159.179 56.3207L159.946 53.6545C161.401 54.4857 163 54.8998 164.74 54.8998C165.991 54.8998 166.964 54.6268 167.658 54.0851C168.354 53.542 168.705 52.8158 168.705 51.9095C168.705 51.0978 168.414 50.4181 167.843 49.8645C167.269 49.3123 166.319 48.7977 164.986 48.325C161.359 47.0212 159.544 45.1142 159.544 42.6055C159.544 40.967 160.186 39.6256 161.465 38.5769C162.744 37.5296 164.441 37.0059 166.551 37.0059C168.436 37.0059 170.007 37.3225 171.253 37.9542L170.421 40.5619C169.247 39.9497 167.923 39.6437 166.441 39.6437C165.27 39.6437 164.352 39.9212 163.695 40.4734C163.143 40.967 162.863 41.5687 162.863 42.2829C162.863 43.0706 163.182 43.7248 163.817 44.2379C164.368 44.7105 165.373 45.2252 166.827 45.7773C168.61 46.4705 169.921 47.2778 170.76 48.205C171.605 49.1323 172.025 50.2891 172.025 51.668ZM183.024 45.2717H179.367V52.2621C179.367 54.0401 180.011 54.9269 181.303 54.9269C181.896 54.9269 182.388 54.8788 182.777 54.7783L182.869 57.2075C182.215 57.443 181.354 57.5616 180.288 57.5616C178.978 57.5616 177.954 57.176 177.214 56.4048C176.478 55.6336 176.108 54.3417 176.108 52.5232V45.2657H173.929V42.865H176.108V40.2288L179.367 39.2806V42.865H183.024V45.2717ZM199.494 49.9515C199.494 52.1646 198.837 53.9816 197.527 55.4025C196.156 56.8654 194.331 57.5946 192.058 57.5946C189.863 57.5946 188.118 56.8939 186.817 55.494C185.516 54.0911 184.865 52.3236 184.865 50.1916C184.865 47.9604 185.538 46.1329 186.878 44.712C188.221 43.2897 190.03 42.5785 192.304 42.5785C194.495 42.5785 196.255 43.2807 197.587 44.682C198.861 46.0414 199.494 47.7969 199.494 49.9515ZM196.054 50.025C196.054 48.7061 195.759 47.5748 195.166 46.6281C194.47 45.4848 193.474 44.9131 192.184 44.9131C190.854 44.9131 189.835 45.4848 189.141 46.6281C188.546 47.5748 188.251 48.7257 188.251 50.085C188.251 51.4054 188.546 52.5397 189.141 53.4835C189.858 54.6268 190.859 55.1984 192.156 55.1984C193.424 55.1984 194.419 54.6148 195.138 53.455C195.748 52.4857 196.054 51.3469 196.054 50.025ZM210.285 45.6843C209.939 45.6242 209.589 45.5946 209.239 45.5958C208.071 45.5958 207.169 46.0189 206.534 46.8711C205.983 47.6213 205.706 48.5696 205.706 49.7144V57.269H202.387V47.4053C202.39 45.8939 202.358 44.3826 202.291 42.8725H205.181L205.303 45.6273H205.394C205.746 44.6805 206.297 43.9168 207.053 43.3452C207.746 42.8456 208.587 42.5751 209.452 42.574C209.758 42.574 210.036 42.595 210.281 42.6325L210.285 45.6843ZM225.125 49.3888C225.133 49.8751 225.093 50.361 225.003 50.8397H215.049C215.086 52.2621 215.569 53.3514 216.493 54.1016C217.332 54.7708 218.417 55.1069 219.749 55.1069C221.223 55.1069 222.568 54.8818 223.777 54.4272L224.297 56.6463C222.884 57.2405 221.215 57.5361 219.29 57.5361C216.974 57.5361 215.156 56.8789 213.833 55.5675C212.513 54.2547 211.852 52.4902 211.852 50.2801C211.852 48.1105 212.467 46.3025 213.698 44.8606C214.986 43.3212 216.728 42.5515 218.919 42.5515C221.072 42.5515 222.701 43.3212 223.808 44.8606C224.684 46.0804 225.125 47.5928 225.125 49.3888ZM221.961 48.5591C221.984 47.6093 221.766 46.7916 221.316 46.0999C220.742 45.2087 219.858 44.7646 218.674 44.7646C217.589 44.7646 216.705 45.1982 216.032 46.0684C215.48 46.7601 215.151 47.5913 215.05 48.5561L221.961 48.5591Z" fill="white"/>
<path d="M105.366 30.2421C104.443 30.2421 103.645 30.1986 102.98 30.125V20.4714C103.91 20.333 104.849 20.2647 105.79 20.2673C109.595 20.2673 111.348 22.0723 111.348 25.0146C111.348 28.4086 109.277 30.2421 105.366 30.2421ZM105.923 21.5052C105.41 21.5052 104.973 21.5352 104.61 21.6072V28.9457C104.806 28.9757 105.183 28.9892 105.712 28.9892C108.205 28.9892 109.625 27.6208 109.625 25.0581C109.625 22.773 108.341 21.5052 105.923 21.5052ZM116.809 30.3156C114.664 30.3156 113.274 28.7717 113.274 26.6756C113.274 24.491 114.694 22.9336 116.93 22.9336C119.044 22.9336 120.465 24.404 120.465 26.5601C120.465 28.7717 119 30.3156 116.809 30.3156ZM116.871 24.0829C115.693 24.0829 114.938 25.1452 114.938 26.6306C114.938 28.0875 115.709 29.1498 116.856 29.1498C118.003 29.1498 118.773 28.014 118.773 26.6006C118.773 25.1602 118.018 24.0829 116.871 24.0829ZM132.695 23.0791L130.399 30.155H128.904L127.953 27.0822C127.716 26.3306 127.519 25.5679 127.363 24.7971H127.332C127.212 25.5683 126.985 26.341 126.743 27.0822L125.732 30.155H124.22L122.06 23.0791H123.736L124.568 26.443C124.764 27.2442 124.929 28.0005 125.066 28.7146H125.097C125.217 28.119 125.413 27.3748 125.701 26.458L126.743 23.0806H128.073L129.07 26.386C129.311 27.1872 129.508 27.9734 129.66 28.7161H129.704C129.809 27.9884 129.976 27.2157 130.202 26.386L131.094 23.0806L132.695 23.0791ZM141.146 30.155H139.515V26.0919C139.515 24.8406 139.017 24.2134 138.035 24.2134C137.069 24.2134 136.404 25.0146 136.404 25.9464V30.155H134.773V25.1017C134.773 24.476 134.757 23.8053 134.712 23.0776H136.147L136.223 24.1699H136.269C136.707 23.4137 137.598 22.9336 138.595 22.9336C140.136 22.9336 141.148 24.0694 141.148 25.9179L141.146 30.155ZM145.644 30.155H144.012V19.8322H145.644V30.155ZM151.591 30.3156C149.448 30.3156 148.057 28.7717 148.057 26.6756C148.057 24.491 149.476 22.9336 151.711 22.9336C153.826 22.9336 155.246 24.404 155.246 26.5601C155.247 28.7717 153.781 30.3156 151.591 30.3156ZM151.652 24.0829C150.474 24.0829 149.719 25.1452 149.719 26.6306C149.719 28.0875 150.491 29.1498 151.635 29.1498C152.783 29.1498 153.552 28.014 153.552 26.6006C153.554 25.1602 152.801 24.0829 151.652 24.0829ZM161.677 30.155L161.558 29.3403H161.515C161.017 29.996 160.29 30.3156 159.369 30.3156C158.053 30.3156 157.12 29.4273 157.12 28.233C157.12 26.4865 158.69 25.5833 161.409 25.5833V25.4528C161.409 24.521 160.897 24.0544 159.885 24.0544C159.162 24.0544 158.527 24.2299 157.968 24.5795L157.636 23.5457C158.315 23.1376 159.162 22.9336 160.156 22.9336C162.074 22.9336 163.042 23.9088 163.042 25.8609V28.4671C163.042 29.1813 163.074 29.7349 163.148 30.1565L161.677 30.155ZM161.453 26.6306C159.641 26.6306 158.732 27.0537 158.732 28.0575C158.732 28.8002 159.201 29.1633 159.851 29.1633C160.681 29.1633 161.453 28.5526 161.453 27.7229V26.6306ZM170.962 30.155L170.886 29.0192H170.841C170.372 29.8775 169.585 30.3156 168.484 30.3156C166.715 30.3156 165.404 28.8152 165.404 26.7041C165.404 24.491 166.763 22.9321 168.618 22.9321C169.6 22.9321 170.296 23.2516 170.688 23.8938H170.721V19.8322H172.354V28.248C172.354 28.9322 172.371 29.5729 172.414 30.155H170.962ZM170.721 25.9914C170.721 25.0011 170.041 24.1564 169.003 24.1564C167.793 24.1564 167.054 25.1902 167.054 26.6456C167.054 28.0725 167.821 29.0492 168.97 29.0492C169.996 29.0492 170.721 28.1895 170.721 27.1707V25.9914ZM182.705 30.3156C180.562 30.3156 179.172 28.7717 179.172 26.6756C179.172 24.491 180.592 22.9336 182.827 22.9336C184.942 22.9336 186.361 24.404 186.361 26.5601C186.363 28.7717 184.898 30.3156 182.705 30.3156ZM182.766 24.0829C181.589 24.0829 180.834 25.1452 180.834 26.6306C180.834 28.0875 181.605 29.1498 182.75 29.1498C183.899 29.1498 184.668 28.014 184.668 26.6006C184.671 25.1602 183.916 24.0829 182.766 24.0829ZM195.133 30.155H193.5V26.0919C193.5 24.8406 193.002 24.2134 192.02 24.2134C191.054 24.2134 190.391 25.0146 190.391 25.9464V30.155H188.758V25.1017C188.758 24.476 188.742 23.8053 188.697 23.0776H190.132L190.209 24.1699H190.254C190.691 23.4137 191.583 22.9321 192.579 22.9321C194.12 22.9321 195.133 24.0679 195.133 25.9164V30.155ZM206.107 24.2584H204.313V27.6944C204.313 28.5691 204.627 29.0057 205.262 29.0057C205.55 29.0057 205.791 28.9757 205.986 28.9322L206.031 30.1265C205.715 30.2436 205.292 30.3021 204.766 30.3021C203.48 30.3021 202.711 29.6179 202.711 27.8264V24.2584H201.64V23.0791H202.711V21.7827L204.313 21.3161V23.0776H206.107V24.2584ZM214.742 30.155H213.113V26.1219C213.113 24.8556 212.616 24.2149 211.632 24.2149C210.787 24.2149 210 24.7686 210 25.8894V30.155H208.37V19.8322H210V24.0829H210.032C210.546 23.3117 211.29 22.9321 212.239 22.9321C213.793 22.9321 214.742 24.0964 214.742 25.9464V30.155ZM223.589 26.9952H218.694C218.725 28.335 219.645 29.0913 221.007 29.0913C221.73 29.0913 222.396 28.9742 222.985 28.7567L223.238 29.849C222.544 30.14 221.727 30.2856 220.776 30.2856C218.481 30.2856 217.122 28.8872 217.122 26.7191C217.122 24.5495 218.513 22.9186 220.593 22.9186C222.468 22.9186 223.645 24.2584 223.645 26.2825C223.655 26.5213 223.636 26.7606 223.589 26.9952ZM222.093 25.8744C222.093 24.7821 221.522 24.0109 220.479 24.0109C219.542 24.0109 218.801 24.7971 218.695 25.8744H222.093Z" fill="white"/>
</svg>
